<svg xmlns="http://www.w3.org/2000/svg" width="285" height="50" viewBox="0 0 285 50">
  <g id="_04-Logo-Groupe_Annie_Famose_-_1_ligne_-_Noir_sans_fond" data-name="04-Logo-Groupe Annie Famose - 1 ligne - Noir sans fond" transform="translate(-70 -49.654)">
    <g id="Group_1" data-name="Group 1" transform="translate(183.89 49.654)">
      <path id="Path_1" data-name="Path 1" d="M258.074,58.076a4.106,4.106,0,0,1-1.649-.335,4.218,4.218,0,0,1-2.25-2.232,4.2,4.2,0,0,1,0-3.286,4.257,4.257,0,0,1,2.25-2.238,4.225,4.225,0,0,1,3.577.136,4.313,4.313,0,0,1,1.463,1.246l.149.2-.88.614L260.591,52a3.3,3.3,0,0,0-1.091-.93,3.139,3.139,0,0,0-2.647-.093,3.328,3.328,0,0,0-1,.676,3.117,3.117,0,0,0-.676,1,2.98,2.98,0,0,0-.248,1.215,3.116,3.116,0,0,0,.248,1.221,3.329,3.329,0,0,0,.676,1,3.264,3.264,0,0,0,1,.676,3.119,3.119,0,0,0,1.227.242,3.017,3.017,0,0,0,1.55-.409,3.135,3.135,0,0,0,1.085-1.048V54.524h-2.79v-1h3.831V57.94h-1.01v-.893c-.05.05-.1.093-.149.136a3.824,3.824,0,0,1-1.581.8,3.82,3.82,0,0,1-.93.112Z" transform="translate(-253.84 -49.654)"/>
      <path id="Path_2" data-name="Path 2" d="M278.816,58.017h-1.308l-1.922-2.7h-2.659v2.7H271.86V49.89h3.614a3.259,3.259,0,0,1,1.19.211,2.564,2.564,0,0,1,1.463,1.457,2.862,2.862,0,0,1,.062,1.885,2.651,2.651,0,0,1-.372.75,2.518,2.518,0,0,1-.6.6,2.775,2.775,0,0,1-.5.279l2.1,2.945Zm-5.889-3.738h2.529a2.179,2.179,0,0,0,.787-.136,1.74,1.74,0,0,0,.564-.366,1.485,1.485,0,0,0,.341-.527,1.886,1.886,0,0,0,.118-.645,1.748,1.748,0,0,0-.118-.645,1.485,1.485,0,0,0-.341-.527,1.614,1.614,0,0,0-.564-.366,2.053,2.053,0,0,0-.787-.136h-2.529Z" transform="translate(-260.689 -49.744)"/>
      <path id="Path_3" data-name="Path 3" d="M290.9,58.078a4.106,4.106,0,0,1-1.649-.335A4.217,4.217,0,0,1,287,55.511a4.2,4.2,0,0,1,0-3.286,4.256,4.256,0,0,1,2.25-2.238,4.268,4.268,0,0,1,3.292,0,4.363,4.363,0,0,1,1.339.905,4.409,4.409,0,0,1,.905,1.333,4.2,4.2,0,0,1,0,3.286,4.261,4.261,0,0,1-.905,1.333,4.346,4.346,0,0,1-1.339.9A4.077,4.077,0,0,1,290.9,58.078Zm0-7.352a2.988,2.988,0,0,0-1.221.248,3.328,3.328,0,0,0-1,.676,3.115,3.115,0,0,0-.676,1,2.98,2.98,0,0,0-.248,1.215A3.115,3.115,0,0,0,288,55.09a3.327,3.327,0,0,0,.676,1,3.263,3.263,0,0,0,1,.676,3.177,3.177,0,0,0,2.443,0,3.17,3.17,0,0,0,1.674-1.68,3.009,3.009,0,0,0,.248-1.221,3.086,3.086,0,0,0-.248-1.215,3.407,3.407,0,0,0-.676-1,3.115,3.115,0,0,0-1-.676,2.98,2.98,0,0,0-1.215-.248Z" transform="translate(-266.318 -49.655)"/>
      <path id="Path_4" data-name="Path 4" d="M308.607,58.166a3.986,3.986,0,0,1-1.469-.254,3.139,3.139,0,0,1-1.085-.694,2.893,2.893,0,0,1-.67-1.048,3.626,3.626,0,0,1-.223-1.283v-5h1.066v4.972a2.5,2.5,0,0,0,.155.905,1.912,1.912,0,0,0,.446.7,2.082,2.082,0,0,0,.738.465,3.3,3.3,0,0,0,2.089,0,2,2,0,0,0,.732-.465,2.115,2.115,0,0,0,.446-.7,2.524,2.524,0,0,0,.155-.905V49.89h1.066v5a3.6,3.6,0,0,1-.223,1.283,2.864,2.864,0,0,1-.669,1.048,3.139,3.139,0,0,1-1.085.694,4.009,4.009,0,0,1-1.469.254Z" transform="translate(-273.345 -49.744)"/>
      <path id="Path_5" data-name="Path 5" d="M323.076,58.017H322.01V49.89H325.2a3.38,3.38,0,0,1,1.283.229,2.994,2.994,0,0,1,.967.626,2.658,2.658,0,0,1,.6.924,3,3,0,0,1,.2,1.1,2.933,2.933,0,0,1-.2,1.085,2.665,2.665,0,0,1-.6.917,2.821,2.821,0,0,1-.961.632,3.357,3.357,0,0,1-1.283.236h-2.126v2.381Zm0-3.416h2.108a2.14,2.14,0,0,0,.849-.155,1.772,1.772,0,0,0,.626-.409,1.63,1.63,0,0,0,.378-.583,1.884,1.884,0,0,0,.13-.688,1.909,1.909,0,0,0-.13-.707,1.718,1.718,0,0,0-.378-.583,1.881,1.881,0,0,0-.62-.4,2.29,2.29,0,0,0-.855-.149h-2.108V54.6Z" transform="translate(-279.75 -49.744)"/>
      <path id="Path_6" data-name="Path 6" d="M342.631,58.017H336.89V49.89h5.741v1.06h-4.668V53.5h3.974v1.035h-3.974v2.418h4.668v1.06Z" transform="translate(-285.405 -49.744)"/>
    </g>
    <g id="Group_4" data-name="Group 4" transform="translate(70 67.647)">
      <g id="Group_2" data-name="Group 2" transform="translate(130.211 0.006)">
        <path id="Path_7" data-name="Path 7" d="M370.64,104.609c-.229-3.329-.428-12.826-.546-19.794-.074-3.416.391-5.015,3.757-5.145v-.4c-1.358.087-3.6.13-5.195.13-1.24,0-2.635,0-4.147-.13-2.207,7.278-5.232,15.666-7.439,21.611-2.715-6.925-5.152-13.626-7.941-21.611-1.742.13-3.1.13-4.494.13-1.668,0-3.137-.043-5.152-.13v.4c3.794.533,4.265,1.6,4.147,4.928-.229,6.7-.657,13.49-1.085,18.994-.279,3.571-1.68,5.8-2.839,5.8s-1.916-.961-3.968-6.069c-2.827-7.148-8.8-22.547-9.454-24.586l-.31.13c-.775,2.306-7.83,18.728-10.731,25.473-1.742,4.085-3.025,5.195-5.034,5.412v.4c1.978-.087,3.292-.13,4.687-.13,2.25,0,3.372.043,5.152.13V109.8c-3.217-.13-4.8-1.289-3.565-5.548.583-2,1.63-4.749,2.207-6.168h9.026c.694,1.823,1.86,4.879,2.362,6.658,1,3.459-.155,4.792-3.372,5.059v.353c2.17-.13,4.649-.13,7.166-.13h9.138c1.978,0,2.635.043,4.767.13v-.4c-3.292-.18-4.222-1.643-4.184-5.815,0-4.928.583-16.639.812-20.9,3.062,8.208,7.129,19.038,10,27.2l.347-.223c2.79-8.518,7.557-21.834,9.689-27.425.192,4.972.391,17.748.391,21.97,0,3.242-.583,4.879-3.875,5.195v.4c2.443-.043,4.73-.13,7.247-.13,2.089,0,4.147.087,6.627.13v-.4c-3.41-.31-3.955-1.643-4.184-5.145Zm-51.677-7.191,4.42-10.83c.347.973,3.757,9.851,4.11,10.83H318.97Z" transform="translate(-291.662 -78.734)"/>
        <path id="Path_8" data-name="Path 8" d="M412.26,94.662c0-9.41,5.462-15.932,14.029-15.932s14.066,6.565,14.066,15.932-5.5,16.019-14.066,16.019S412.26,104.066,412.26,94.662Zm21.542,0c0-8.7-2.1-15.4-7.52-15.4s-7.52,6.7-7.52,15.4,2.1,15.486,7.52,15.486S433.8,103.36,433.8,94.662Z" transform="translate(-330.449 -78.73)"/>
        <path id="Path_9" data-name="Path 9" d="M463.308,110.021c-2.635-.62-3.18-1.866-3.255-3.769a60.1,60.1,0,0,1,.347-6.658h.347c1.122,6.881,4.767,10.607,8.332,10.607,3.955,0,5.7-3.149,5.7-6.522.037-3.552-2.244-5.369-5.5-6.3-4.575-1.333-8.989-3.416-8.989-9.627.037-5.722,3.955-9.008,10.539-9.008a18.781,18.781,0,0,1,4.687.533c2.133.533,2.672,1.463,2.907,3.242.074.886.074,2.839.037,6.348h-.347c-1.085-4.569-3.72-9.627-7.284-9.627s-5.269,2.883-5.269,5.858c0,4.129,2.56,5.635,5.462,6.522,5.927,1.73,8.952,4.215,8.952,9.454,0,5.988-4.184,9.627-10.886,9.627a24.391,24.391,0,0,1-5.772-.663Z" transform="translate(-348.609 -78.734)"/>
        <path id="Path_10" data-name="Path 10" d="M491.112,109.994c3.955-.18,4.532-2.04,4.532-6.522V86.251c0-4.928-.849-6.125-4.532-6.348v-.4c3.062.13,7.166.13,10.966.13,3.484,0,6.509-.087,10.5-.267.583.843.583,2.666.5,4.482l-.155,3.769h-.31c-1.475-5.772-3.447-7.278-10.464-7.408h-.775c-.037.62-.118,3.552-.118,4.4v9.454h2.089c6.125-.043,6.435-1.6,7.129-4.525h.229V99.611h-.273c-.5-3.329-1.048-4.835-7.129-4.879h-2.052v9.987c0,3.726.62,4.879,4.147,4.879,4.885,0,7.749-2.709,9.491-8.3h.31c-.037.353-.31,4.612-.347,4.928-.192,2.486-.5,3.552-1.2,4.172-3.875-.087-6.745-.13-10.309-.13-4.3,0-7.52,0-12.243.13V110Z" transform="translate(-360.414 -78.973)"/>
        <path id="Path_11" data-name="Path 11" d="M280.3,109.994c3.955-.18,4.532-2.04,4.532-6.522V86.251c0-4.928-.849-6.125-4.532-6.348v-.4c3.062.13,7.21.13,10.966.13,3.447,0,7.7-.087,11.655-.267.62.843.62,2.486.546,4.4l-.192,3.862H303c-1.513-5.815-4.6-7.408-12.429-7.408-.037.62-.118,3.6-.118,4.439v9.807h2.635c5.35,0,6.162-1.643,6.856-4.569h.229v10.3H299.9c-.583-3.509-1.55-5.015-6.856-5.059h-2.6v8.3c0,4.482.5,6.3,4.612,6.565v.4c-2.907-.043-4.842-.13-7.52-.13-2.517,0-4.532.087-7.247.13V110Z" transform="translate(-280.29 -78.973)"/>
      </g>
      <g id="Group_3" data-name="Group 3">
        <path id="Path_12" data-name="Path 12" d="M183.9,111.057c-6.007-8.164-14.1-19.038-19.683-26.272,0,5.195-.037,13.979.118,19.435.118,4.3,1.122,5.679,4.842,5.858v.4c-1.9-.043-3.025-.13-5.195-.13-1.9,0-3.565.043-5.152.13v-.4c3.217-.31,4.575-2.04,4.612-5.772.118-5.9.18-11.183.074-17.928-.087-5.734-1.141-6.41-4.885-6.391v-.31h5.542c1.165,0,2.443,0,3.682-.087C172.7,86.6,178.629,94.5,183.47,100.624c.037-4.749.037-10.737-.037-15.709-.037-3.6-1.2-4.835-4.885-4.928v-.4c1.24.043,3.18.087,5.387.087h3.67l.707.31c-3.18.087-3.8,1.686-3.955,4.569-.155,3.509-.273,14.469-.273,17.488,0,4.612.074,7.148.155,9.007h-.347Z" transform="translate(-103.686 -79.051)"/>
        <path id="Path_13" data-name="Path 13" d="M214.034,103.657c0,4.662.812,6.348,4.494,6.478v.267H211.09c-2.325,0-4.494,0-7.21.13v-.4c3.837-.13,4.494-1.909,4.494-6.522V86.528c0-4.612-.5-6.3-4.494-6.478l.924-.31s4.036.043,6.4.043c2.48,0,6.515-.043,6.515-.043l.806.31c-3.875.13-4.494,1.866-4.494,6.478Z" transform="translate(-120.884 -79.108)"/>
        <path id="Path_14" data-name="Path 14" d="M225.132,109.994c3.955-.18,4.532-2.04,4.532-6.522V86.251c0-4.928-.849-6.125-4.532-6.348l.67-.31s6.5.043,10.3.043c3.484,0,6.509-.087,10.5-.267.583.843.583,2.666.5,4.482l-.155,3.769h-.31c-1.475-5.772-3.447-7.278-10.464-7.408H235.4c-.037.62-.118,3.552-.118,4.4v9.454h2.089c6.125-.043,6.435-1.6,7.129-4.525h.229V99.611h-.273c-.5-3.329-1.048-4.835-7.129-4.879h-2.052v9.987c0,3.726.62,4.879,4.147,4.879,4.885,0,7.749-2.709,9.491-8.3h.31c-.037.353-.31,4.612-.347,4.928-.192,2.486-.5,3.552-1.2,4.172-3.875-.087-6.745-.13-10.309-.13H225.12V110Z" transform="translate(-128.957 -78.967)"/>
        <path id="Path_15" data-name="Path 15" d="M122.7,79.346c-2.207,0-4.147-.043-5.387-.087v.4c3.682.087,4.842,1.333,4.885,4.928.074,4.972.074,10.96.037,15.709-4.842-6.125-10.774-14.023-15.616-21.034-1.24.087-2.517.087-3.682.087-1.395,0-3.955,0-5.542-.087v.4c3.527.353,4.8,2.443,4.885,6.391.037,6.646.019,13.211-.074,17.668-.068,3.385-1.389,5.66-2.566,5.66s-2.052-.961-4.1-6.069c-2.827-7.148-8.8-22.547-9.454-24.586l-.31.13C85,81.156,77.941,97.578,75.04,104.323c-1.742,4.085-3.025,5.195-5.04,5.412v.4c1.978-.087,3.292-.13,4.687-.13,2.25,0,3.372.043,5.152.13v-.353c-3.217-.13-4.8-1.289-3.565-5.548.583-2,1.63-4.749,2.207-6.168h9.026c.694,1.823,1.86,4.879,2.362,6.658,1,3.459-.155,4.792-3.372,5.059v.353c2.17-.13,4.649-.13,7.166-.13h9.07c2.17,0,3.292.087,5.195.13v-.4c-3.72-.18-4.724-1.556-4.842-5.858-.155-5.462-.118-14.246-.118-19.435,5.579,7.235,13.676,18.108,19.683,26.272H123c-.074-1.866-.155-4.4-.155-9.008,0-3.019.118-13.979.273-17.488.155-2.883.775-4.482,3.955-4.569v-.31h-4.377ZM78.753,97.411l4.42-10.83c.347.973,3.757,9.851,4.11,10.83H78.76Z" transform="translate(-70 -78.72)"/>
      </g>
    </g>
  </g>
</svg>