<svg viewBox="0 0 64 64" xmlns="http://www.w3.org/2000/svg" width="64" height="64">
	<g transform="translate(10.4 -52.5) scale(1.8)">
	  <path fill="#ffde47" d="M20.8 58.2a2 2 0 01-1.9 2.8H5.1a2 2 0 01-1.9-2.8L9 45v-8h6v8z"/>
	  <path d="M18 35a2 2 0 01-2 2H8a2 2 0 01-2-2 2 2 0 012-2h8a2 2 0 012 2z" fill="#c6c5ca"/>
	  <path d="M21.7 57.8l-5.7-13V38a3 3 0 000-6H8a3 3 0 000 6v6.8l-5.7 13A3 3 0 005.1 62h13.8a3 3 0 002.8-4.2zM7 35a1 1 0 011-1h8a1 1 0 010 2H8a1 1 0 01-1-1zm12.8 24.6a1 1 0 01-.9.4H5.1a1 1 0 01-.9-.5 1 1 0 010-.9l5.7-13.2a1.1 1.1 0 00.1-.4v-7h4v7a1.1 1.1 0 000 .4L20 58.6a1 1 0 01-.1 1z"/>
	</g>
</svg>
