<svg xmlns="http://www.w3.org/2000/svg" viewBox="0 0 64 64" width="64" height="64">
  <path fill="#1d83d4" d="M41.5 27.2c-1.4-.8-3.1-1.3-4.8-1.3-4.4 0-8.1 3-9.2 7 2.3-3 5.9-5 10-5 3.4 0 6.5 1.4 8.7 3.6V2.1h-31v25.1c-1.4-.8-3.1-1.3-4.8-1.3-5.3 0-9.5 4.3-9.5 9.5 0 5.3 4.3 9.5 9.5 9.5 5.3 0 9.5-4.3 9.5-9.5V6.9h21.4v20.3zm-31 13c-2.6 0-4.8-2.1-4.8-4.8 0-2.6 2.1-4.8 4.8-4.8 2.6 0 4.8 2.1 4.8 4.8 0 2.7-2.1 4.8-4.8 4.8z"/>
  <path fill="#666" d="M40.2 52.8c.3-.3.6-.6.8-.9 2.1-3.1 4.9-5.4 7.7-7.7 2.6-2.2 5-4.5 7.4-6.8.2-.2.3-.4.5-.6 1.1-1.6 1-1.7-.5-2.9-.7-.6-1.4-1.2-2-1.9-1.1-1.3-.8-3 .6-4.1 1.3-1 2.8-.9 3.9.5 1.7 2.2 1.6 4.7.7 7-.6 1.5-1.7 3-2.9 4.2-2.6 2.6-5.5 4.9-8.3 7.4-4.2 3.7-7.6 7.9-10 13-.3.6-.7 1.1-1 1.7-.2 0-.3-.1-.5-.1 0-.6-.2-1.3 0-1.8 1.2-3.6 1.1-7.3 1.2-11 0-2.2.3-4.3.5-6.5.3-3 1.8-5.5 3.9-7.6.5-.5 1-1.1 1.7-2-1.4-.2-2.4-.5-3.4-.5-5.1-.1-9.5 1.5-13 5.2-3.9 4.1-6.9 8.6-7.8 14.2-.1.7-.2 1.5 0 2.1.3.9.7 2 1.4 2.3 1.1.5 2.6.3 3.5-.8 1-1.2 2.4-2.3 1.6-4.3-.3-.8.5-1.6 1.3-1.6.9 0 1.6.6 1.4 1.5-.8 2.6-1.8 5.2-4.3 6.7-1.1.7-2.4.7-3.6.3-2.3-.8-4.3-3.6-4.4-6.1-.1-3.1.8-5.8 2.5-8.3 3.6-5.4 8-10 14.4-12 3.1-1 6.2-1.3 9.4-.7.6.1 1.2.3 1.6.6 1.2.8 1.3 2.2.3 3.2l-.1.1c-3.8 3.1-5.3 7.2-5.3 12 0 1.5-.1 3-.1 4.5 0 .5.2 1 .3 1.5.4.2.5.2.6.2z"/>
</svg>