<svg xmlns="http://www.w3.org/2000/svg" viewBox="0 0 64 64" width="64" height="64">
  <path fill="#666" d="M32 4.2c13.8 0 25 11.2 25 25V50c0 5.4-4.3 9.7-9.7 9.7-3.2 0-6.2-1.6-8-4.2-2.3 4-7.3 5.4-11.3 3.2-1.3-.7-2.4-1.8-3.2-3.2-3 4.4-9.1 5.6-13.5 2.5-2.5-1.7-4-4.5-4.2-7.5V29.2C7 15.4 18.2 4.2 32 4.2zm11.1 30.6h-5.6c0 3.1-2.5 5.6-5.5 5.6-2.9 0-5.4-2.2-5.6-5.2v-.4h-5.6v.6c.3 6.1 5.5 10.8 11.7 10.5 5.7-.3 10.3-4.8 10.5-10.5l.1-.6zM32 18.1c-3.1 0-5.6 2.5-5.6 5.6s2.5 5.6 5.6 5.6 5.6-2.5 5.6-5.6-2.5-5.6-5.6-5.6z"/>
</svg>