<svg xmlns="http://www.w3.org/2000/svg" width="64" height="64" viewBox="0 0 64 64">
  <path fill="#1d83d4" d="M17.032 17.079a2.986 2.986 0 00-2.135.869L2.881 29.945a3.004 3.004 0 000 4.251L14.88 46.194c1.039 1.04 3.325.926 4.25 0a3.023 3.023 0 000-4.251L9.25 32.08l9.88-9.881c1.83-1.9.521-5.068-2.115-5.12z"/>
  <path fill="#666" d="M39.516 5.024a3.004 3.004 0 00-2.872 2.116L21.642 55.13a2.947 2.947 0 001.965 3.742 3.174 3.174 0 003.779-1.965l14.983-47.99a3.023 3.023 0 00-2.853-3.874z"/>
  <path fill="#e895b7" d="M47.016 17.079c-2.65.015-3.985 3.203-2.135 5.1l9.882 9.882-9.9 9.882a3.004 3.004 0 000 4.232c.944.926 3.211 1.04 4.25 0l11.998-11.979a2.985 2.985 0 000-4.25L49.132 17.947a2.985 2.985 0 00-2.116-.87z"/>
</svg>