<svg xmlns="http://www.w3.org/2000/svg" viewBox="0 0 64 64" width="64" height="64">
  <path fill="#666" d="M58 56H6c-2.2 0-4-1.8-4-4V12c0-2.2 1.8-4 4-4h52c2.2 0 4 1.8 4 4v40c0 2.2-1.8 4-4 4z"/>
  <path fill="#fff" d="M7 13h50v38H7z"/>
  <path fill="#d3d3d3" d="M34 21h20v5H34zM34 30h20v5H34zM34 39h20v5H34z"/>
  <path fill="#1d83d4" d="M28.9 40.9c0-3.2-2.6-5.8-5.7-5.8h-6.9c-3.2 0-5.7 2.6-5.7 5.7v2.9c2.6 1.8 5.8 2.9 9.2 2.9s6.6-1.1 9.2-2.9l-.1-2.8zM19.8 32.8c-3.8 0-6.9-3.1-6.9-6.9S16 19 19.8 19s6.9 3.1 6.9 6.9-3.1 6.9-6.9 6.9z"/>
</svg>