<svg xmlns="http://www.w3.org/2000/svg" width="64" height="64" viewBox="0 0 64 64">
  <path fill="#666" d="M47.3 39.7 34.4 17.3l-.1-.2c-.6-1-1.7-1.8-2.9-2l-9-1.2c-1-.1-2 .4-2.3 1.4l-3.5 8.4c-.5 1.2-.4 2.5.2 3.5l13 22.6c1 1.8 3.4 2.5 5.2 1.4l1.7-1 9.3-5.4c1.7-1 2.4-3.3 1.3-5.1zM23.5 23.1c-.7-1.2-.2-2.7.9-3.4 1.2-.7 2.7-.2 3.4.9.7 1.2.2 2.7-.9 3.4-1.2.7-2.7.3-3.4-.9z"/>
  <path fill="#1d83d4" d="M2 29.9c5.4 0 6.1-2.9 6.1-5.6 0-2.1-.3-4.2-.6-6.3s-.6-4.1-.6-6.3c0-6.9 4.5-9.9 10.9-9.9h1.6V6H18c-4.5 0-6 2.4-6 6.5 0 1.7.2 3.5.5 5.4.3 1.9.5 3.7.5 5.7.1 4.8-2 7.2-5.4 8.1v.2c3.4.8 5.5 3.4 5.4 8.2 0 2-.2 3.9-.5 5.7-.3 1.9-.5 3.6-.5 5.4 0 4.2 1.7 6.6 6 6.6h1.4V62h-1.6c-6.3 0-10.9-2.7-10.9-10.3 0-2 .3-4.1.6-6.2.3-2 .6-4.1.6-6.1 0-2.3-.8-5.6-6.1-5.6v-3.9zM62 33.8c-5.4 0-6.1 3.2-6.1 5.6 0 2 .3 4.1.6 6.1s.6 4.1.6 6.2c0 7.6-4.8 10.3-10.9 10.3h-1.6v-4.1h1.3c4.2-.1 6-2.3 6-6.6 0-1.8-.3-3.5-.5-5.4-.3-1.8-.6-3.7-.6-5.7 0-4.8 2.1-7.4 5.4-8.2v-.2c-3.3-.9-5.4-3.3-5.4-8.1 0-2 .3-3.8.6-5.7.2-1.8.5-3.6.5-5.4 0-4.1-1.6-6.4-6-6.5h-1.4V1.9H46c6.4 0 11 2.9 11 9.9 0 2.1-.3 4.1-.6 6.3s-.6 4.2-.6 6.3c0 2.6.8 5.6 6.1 5.6v3.8z"/>
</svg>