<svg xmlns="http://www.w3.org/2000/svg" width="64" height="64" viewBox="0 0 64 64">
  <path d="M12.503 57.891c-6.35-2.2-9.43-8.2-7.56-14.9 1.34-4.8 8.86-12.5 13.76-14.1 2.5-.6 2.6-1.2 1.9-7-.6-5.3-.4-6.8 2.1-9.8 4.3-5.08 9.9-6.82 22-6.82 9.6 0 10.9.27 12.7 2.71 4.8 6.41 1.3 9.51-6.3 9.51-5.8 0-3.3-2-3.1-4.4.3-1.81-8.3-2.16-11.6-.5-2.4 1.3-2.5 2.1-1.7 9l.7 7.6-6.4 4.5c-8.4 5.7-10.8 11.2-7.1 16 1.5 2 4 2.4 19.2 2.9 5.6 1 14.9-.4 16.6 2.5 1.7 3.3-5.5 3.8-23.9 3.6-10.6 0-20.2-.4-21.3-.8z" fill="#33669F"/>
</svg>