<svg xmlns="http://www.w3.org/2000/svg" viewBox="0 0 64 64" width="64" height="64">
  <path fill="#fff" d="M13.6 4.9h36.8c1.4 0 2.6 1.2 2.6 2.6v50.3c0 .7-.6 1.3-1.3 1.3-.2 0-.5-.1-.7-.2L32 47 13 58.9c-.6.4-1.4.2-1.8-.4-.1-.2-.2-.5-.2-.7V7.5c0-1.4 1.2-2.6 2.6-2.6z"/>
  <path fill="#666" d="M47.8 38.4v12.3L32 40.8l-15.8 9.9V10.2H25V4.9H13.6c-1.4 0-2.6 1.2-2.6 2.6v50.3c0 .2.1.5.2.7.4.6 1.2.8 1.8.4L32 47l19 11.9c.2.1.5.2.7.2.7 0 1.3-.6 1.3-1.3V38.4h-5.2z"/>
  <path fill="#1d83d4" d="M47.6 4.8c3.8-3.4 9.7-3.3 13.3.4 3.7 3.7 3.8 9.5.4 13.3L47.6 32.2 33.9 18.5c-3.4-3.8-3.3-9.6.4-13.3 3.7-3.6 9.5-3.8 13.3-.4z"/>
</svg>