<svg xmlns="http://www.w3.org/2000/svg" viewBox="0 0 64 64" width="64" height="64">
  <path d="M49 15.3c1.2 1.2 2.8 1.9 4.5 1.9 1.5 0 2.8-.5 4-1.4-2.3-3.6-5.3-6.7-8.9-9-2.1 2.5-1.9 6.2.4 8.5z" fill="#ff4600"/>
  <path d="M47.4 17.1c-3.4-3.4-5.3-7.9-5.2-12.6v-.9C40 2.8 37.8 2.3 35.5 2c-.1.8-.1 1.6-.1 2.4 0 6.6 2.5 12.7 7.2 17.4S53.5 29 60.1 29h.1c.6 0 1.2 0 1.8-.1-.2-2.3-.7-4.5-1.4-6.6-4.8.2-9.6-1.6-13.2-5.2z" fill="#cd3c1b"/>
  <path d="M58.9 35.4c-6.7-2.7-12.7-6.7-17.9-11.8-5.1-5.1-9.1-11.1-11.8-17.7-.5-1.3-1-2.5-1.4-3.8-2.3.3-4.4.9-6.5 1.7.5 1.6 1.1 3.2 1.7 4.7 3 7.5 7.5 14.2 13.3 19.9 5.8 5.7 12.5 10.2 20.1 13.3 1.2.5 2.5 1 3.7 1.4.8-2.1 1.4-4.2 1.7-6.5-1-.4-2-.8-2.9-1.2z" fill="#a53232"/>
  <path d="M55.6 50.8 13.4 8.2c-1.8 1.4-3.4 3-4.8 4.7l42.3 42.6c1.7-1.4 3.3-3 4.7-4.7z" fill="#7d2d46"/>
  <path d="M28.1 36C22.3 30.3 15.6 25.8 8 22.7c-1.4-.6-2.9-1.1-4.3-1.6-.8 2.1-1.4 4.2-1.7 6.5 1.2.4 2.3.8 3.5 1.3 6.7 2.7 12.7 6.7 17.9 11.8 5.1 5.1 9.1 11.1 11.8 17.7.4 1.1.9 2.2 1.2 3.3 2.3-.3 4.4-.9 6.5-1.7-.4-1.4-.9-2.8-1.5-4.1-3-7.4-7.5-14.1-13.3-19.9z" fill="#64286e"/>
  <path d="M21.8 42.6c-4.7-4.6-10.9-7.2-17.5-7.2-.8 0-1.5 0-2.3.1.3 2.3.8 4.5 1.5 6.6h.7c4.7 0 9.3 1.8 12.9 5.3 3.4 3.4 5.3 7.9 5.2 12.6v.6c2.1.7 4.3 1.2 6.6 1.4.1-.7.1-1.3.1-2 0-6.6-2.5-12.8-7.2-17.4z" fill="#411489"/>
  <path d="M15.4 49.1c-2.3-2.4-6.1-2.5-8.6-.4 2.4 3.5 5.5 6.6 9.1 8.8.9-1.1 1.4-2.5 1.4-3.9 0-1.7-.7-3.3-1.9-4.5z" fill="#171775"/>
</svg>