<svg xmlns="http://www.w3.org/2000/svg" width="64" height="64" viewBox="0 0 64 64">
  <path id="svg_1" fill="#666" d="m58,58l-52,0c-2.2,0 -4,-1.8 -4,-3.9l0,-43.2c0,-2.1 1.8,-3.9 4,-3.9l52,0c2.2,0 4,1.8 4,3.9l0,43.2c0,2.1 -1.8,3.9 -4,3.9z"/>
  <path id="svg_2" fill="#fff" d="m8,13l48,0l0,39l-48,0l0,-39z"/>
  <circle id="svg_3" fill="#fff" class="st1" cx="18.1" cy="27.5" r="4.9" stroke="#1d83d4" stroke-width="4"/>
  <circle id="svg_4" fill="#fff" class="st1" cx="45.9" cy="27.5" r="4.9" stroke="#1d83d4" stroke-width="4"/>
  <path id="svg_5" class="st1" d="m25,38c0,3 3,6 7,6m7,-6c0,3 -3,6 -7,6" stroke="#1d83d4" stroke-width="4"/>
  <circle stroke="#ffffff" id="svg_6" fill="#4caf50" cx="52.87719" cy="52.87719" r="10.42106"/>
  <path id="svg_7" fill="#fff" d="m60.28526,51.01865c-0.20582,-0.20614 -0.45592,-0.30905 -0.75032,-0.30905l-4.58917,0l0,-4.58917c0,-0.29407 -0.10291,-0.54417 -0.30905,-0.75032c-0.20582,-0.20582 -0.45592,-0.30872 -0.74999,-0.30872l-2.11775,0c-0.29407,0 -0.54417,0.10291 -0.74999,0.30872c-0.20614,0.20614 -0.30905,0.45592 -0.30905,0.75032l0,4.58917l-4.5895,0c-0.29407,0 -0.54417,0.10323 -0.75032,0.30905c-0.20582,0.20582 -0.30872,0.45592 -0.30872,0.74999l0,2.11841c0,0.29407 0.10291,0.54385 0.30872,0.74999c0.20614,0.20582 0.45592,0.30872 0.75032,0.30872l4.58917,0l0,4.5895c0,0.29407 0.10291,0.5445 0.30872,0.75032c0.20614,0.20582 0.45592,0.30872 0.75032,0.30872l2.11808,0c0.29439,0 0.54417,-0.10291 0.75032,-0.30872c0.20582,-0.20614 0.30872,-0.45592 0.30872,-0.75032l0,-4.5895l4.58917,0c0.29439,0 0.5445,-0.10291 0.75032,-0.30872c0.20582,-0.20582 0.30872,-0.45592 0.30872,-0.74999l0,-2.11841c0,-0.29407 -0.10258,-0.54417 -0.30872,-0.74999z"/>
</svg>