<svg xmlns="http://www.w3.org/2000/svg" viewBox="0 0 64 64" width="64" height="64">
  <path fill="#d3d3d3" d="M5 20h54v30H5z"/>
  <path fill="#fff" d="M17 6h30v12H17zM18 45h27v13H18z"/>
  <path fill="#666" d="M14 53H5c-1.7 0-3-1.3-3-3V20c0-1.7 1.3-3 3-3h9V5c0-1.7 1.3-3 3-3h30c1.7 0 3 1.3 3 3v12h9c1.7 0 3 1.3 3 3v30c0 1.7-1.3 3-3 3h-9v6c0 1.7-1.3 3-3 3H17c-1.7 0-3-1.3-3-3v-6zm0-6v-3c0-1.7 1.3-3 3-3h30c1.7 0 3 1.3 3 3v3h6V23H8v24h6zm6-39v9h24V8H20zm0 39v9h24v-9H20z"/>
  <path fill="#1d83d4" d="M12 26h10v6H12z"/>
</svg>