<svg xmlns="http://www.w3.org/2000/svg" viewBox="0 0 64 64" width="64" height="64">
  <circle cx="32" cy="32" r="26" fill="#fff" opacity=".6"/>
  <path transform="rotate(45 38.30660681 27.04609654)" fill="#d3d3d3" d="M32.5 13.7h11.6v26.6H32.5z"/>
  <path fill="#888" d="M43.5 29.8l-2.7-12L51.3 6.4l7.4 6.7z"/>
  <path transform="rotate(78.796 50.16439648 15.6256704)" fill="#d3d3d3" d="M46.5 14.5h7.4v2.2h-7.4z"/>
  <path transform="rotate(78.796 45.0374895 20.75242843)" fill="#d3d3d3" d="M41.3 19.7h7.4v2.2h-7.4z"/>
  <path transform="matrix(.1943 .9809 -.9809 .1943 57.663 -17.035)" fill="#888" d="M35.5 25.5h7.4v2.2h-7.4z"/>
  <path fill="#666" d="M28.1 34.8l-4.6 4.6c-1.1 1.1-1.5 2.6-.7 3.3.7.7 2.2.4 3.3-.7l4.6-4.6-2.6-2.6z" id="Calque_7"/>
  <path fill="#666" d="M51.8 3.3L22.7 32.4 33 42.8l29.2-29.2L51.8 3.3zM33.4 38.2l-6.1-6.1L51.5 7.9l6.1 6.1-24.2 24.2z"/>
  <path fill="#a37800" d="M8.1 61.4l-4-4c-.8-.8-.8-2.1 0-2.8l16.2-16.2c.8-.8 2.1-.8 2.8 0l4 4c.8.8.8 2.1 0 2.8L10.9 61.4c-.8.7-2.1.7-2.8 0z"/>
</svg>