<svg xmlns="http://www.w3.org/2000/svg" viewBox="0 0 64 64" width="64" height="64">
  <path fill="#666" d="M5 4h6v6H5V4zm11.9 0h6v6h-6V4zM29 4h6v6h-6V4zm11.9 0h6v6h-6V4zm12 0h6v6h-6V4zm0 12h6v6h-6v-6zM5 52h6v6H5v-6zm0-12h6v6H5v-6zm0-12h6v6H5v-6zm0-12h6v6H5v-6zm11.9 36h3v6h-3v-6z"/>
  <path fill="#fff" d="M27.8 29.3h28.8v25H27.8v-25z"/>
  <path fill="#1d83d4" d="M55.3 29.9H27.8v23.8l16-15.6c.7-.7 1.8-.7 2.4 0l9.1 9.4V29.9zM24 27.4c0-.9.3-1.3 1.3-1.3h32.5c.9 0 1.3.3 1.3 1.3v29.4c0 .9-.3 1.3-1.3 1.3H25.3c-.9 0-1.3-.3-1.3-1.3V27.4z"/>
  <circle fill="#1d83d4" cx="34" cy="35.5" r="3.1"/>
</svg>