<svg xmlns="http://www.w3.org/2000/svg" viewBox="0 0 64 64" width="64" height="64">
  <path fill="#1d83d4" d="M60.8 30.9c0-3.8-2.6-7.2-6.2-7.9 1.9-1.4 3.1-3.6 3.1-6 0-4.4-3.6-7.9-7.9-7.9-1.4 0-2.7.4-3.9 1.1.7-3.8-1.8-7.4-5.6-8.1-3.8-.7-7.4 1.8-8.1 5.6-.2.5-.2 1.1-.2 1.6v43.3c.3 3.8 3.6 6.8 7.4 6.5 3.5-.2 6.3-3 6.5-6.5l-.1-.9c3.7 2.3 8.5 1.1 10.7-2.6.8-1.3 1.2-2.7 1.2-4.2 0-2.5-1.2-4.8-3.1-6.2 3.6-.9 6.2-4.1 6.2-7.8z"/>
  <path fill="#666" d="M39 61.8c-4.5 0-8.2-3.7-8.2-8.2V10.3c0-4.5 3.7-8.2 8.2-8.1 4.1 0 7.6 3.1 8.1 7.2 4.8-1.5 9.9 1.2 11.4 6.1.3.9.4 1.7.4 2.6 0 2.1-.7 4-2.1 5.5 3.1 1.5 5.1 4.8 5.1 8.4 0 3.5-2 6.7-5.2 8.2 3.1 4 2.4 9.7-1.6 12.8-2.3 1.8-5.4 2.4-8.2 1.6-.3 4.1-3.8 7.2-7.9 7.2zm0-57.3c-3.2 0-5.8 2.6-5.8 5.8v43.3c.2 3.2 3 5.6 6.2 5.3 2.8-.2 5.1-2.5 5.3-5.3 0-.2 0-.4-.1-.6v-.2c-.1-.7.4-1.3 1-1.4.3 0 .6 0 .8.2 1 .6 2.2.9 3.4.9 3.7 0 6.6-3 6.6-6.7 0-2-.9-4-2.6-5.3-.5-.4-.6-1.2-.2-1.7.2-.2.4-.4.7-.4 3.1-.7 5.2-3.4 5.2-6.5 0-3.2-2.3-6.1-5.2-6.7-.7-.1-1.1-.8-1-1.4.1-.3.2-.6.5-.8 1.7-1.3 2.6-3 2.6-5 0-3.7-3-6.7-6.7-6.7-1.2 0-2.3.3-3.4 1-.6.3-1.3.2-1.7-.4-.1-.2-.2-.5-.2-.8v-.2l.1-.6c.2-3.2-2.4-5.8-5.5-5.8z"/>
  <path fill="#d3d3d3" d="M3.2 31.9c0-3.8 2.6-7.2 6.2-7.9-1.9-1.4-3.1-3.6-3.1-6 0-4.4 3.6-7.9 7.9-7.9 1.4 0 2.7.4 3.9 1.1-.7-3.8 1.8-7.4 5.6-8.1 3.8-.7 7.4 1.8 8.1 5.6.1.5.1 1 .1 1.6v43.3c-.3 3.8-3.6 6.8-7.4 6.5-3.5-.2-6.3-3-6.5-6.5l.1-.9c-3.7 2.3-8.5 1.1-10.7-2.6-.8-1.3-1.2-2.7-1.2-4.2 0-2.5 1.2-4.8 3.1-6.2-3.5-.9-6.1-4.1-6.1-7.8z"/>
  <path fill="#666" d="M25 61.8c-4.2 0-7.6-3.1-8.1-7.2C12 56 7 53.2 5.6 48.3c-.8-2.8-.2-5.9 1.6-8.2C4 38.6 2 35.4 2 31.9c0-3.6 2.1-6.9 5.1-8.4-1.3-1.5-2-3.5-2-5.5 0-5 4.2-9.1 9.2-9.1.9 0 1.7.1 2.5.4.7-4.5 5-7.5 9.5-6.8 3.8.6 6.7 3.8 6.9 7.7v43.3c0 4.6-3.7 8.3-8.2 8.3zm-6.8-10.4c.7 0 1.2.5 1.2 1.2v.4l-.1.6c.2 3.2 3 5.6 6.2 5.3 2.8-.2 5.1-2.5 5.3-5.3V10.3c-.2-3.2-3-5.6-6.2-5.3-2.8.2-5.1 2.5-5.3 5.3 0 .2 0 .4.1.6v.2c.1.7-.4 1.3-1 1.4-.3 0-.6 0-.8-.2-1-.6-2.2-.9-3.4-.9-3.7 0-6.6 3-6.6 6.7 0 2 .9 3.7 2.6 5 .5.4.6 1.2.2 1.7-.2.2-.4.4-.7.5-3.1.8-5.2 3.5-5.2 6.7 0 3.1 2.2 5.8 5.2 6.5.7.2 1.1.8.9 1.5-.1.3-.2.5-.4.7-1.6 1.2-2.6 3.2-2.6 5.3 0 3.7 3 6.7 6.7 6.7 1.2 0 2.3-.3 3.4-1 0-.2.3-.3.5-.3z"/>
  <path fill="#666" d="M36.7 26.2c-.7 0-1.2-.5-1.2-1.2 0-3.2 2.6-5.8 5.8-5.8h1.5c1.9 0 3.4-1.5 3.4-3.4 0-.7.5-1.2 1.2-1.2s1.2.5 1.2 1.2c0 3.3-2.6 5.9-5.8 5.9h-1.6c-1.9 0-3.4 1.5-3.4 3.4 0 .5-.5 1.1-1.1 1.1zm15.4 7.7h-.8c-2.8 0-5.1-2.5-5.1-5.5s2.3-5.6 5.1-5.6h3.9c.7 0 1.2.5 1.2 1.2s-.5 1.2-1.2 1.2h-3.9c-1.5 0-2.6 1.4-2.6 3.1 0 1.7 1.2 3.1 2.6 3.1h.8c.7 0 1.2.5 1.2 1.2s-.5 1.3-1.2 1.3zM41.3 49.4c-.7 0-1.2-.5-1.2-1.2 0-.3.1-.7.4-.9l2.7-2.7c1.8-1.8 2.1-4.6.6-6.6l-2-3c-.4-.6-.2-1.3.4-1.7.6-.4 1.3-.2 1.7.4l2 3c2 3.1 1.6 7.1-1 9.7l-2.7 2.7c-.3.2-.6.3-.9.3zm-2-5.9c-.7 0-1.2-.5-1.2-1.2 0-2-1.6-3.7-3.7-3.7H33c-.7 0-1.2-.5-1.2-1.2s.5-1.2 1.2-1.2h1.5c3.4 0 6.1 2.7 6.1 6.1 0 .7-.6 1.2-1.3 1.2zM27.4 26.2c-.7 0-1.2-.5-1.2-1.2 0-1.9-1.5-3.4-3.4-3.4h-1.5c-3.2 0-5.9-2.6-5.9-5.9 0-.7.5-1.2 1.2-1.2s1.2.5 1.2 1.2c0 1.9 1.5 3.4 3.4 3.4h1.6c3.2 0 5.9 2.6 5.9 5.8-.1.7-.6 1.3-1.3 1.3zm-14.7 7.7H12c-.7 0-1.2-.5-1.2-1.2s.5-1.2 1.2-1.2h.8c1.5 0 2.6-1.4 2.6-3.1 0-1.7-1.2-3.1-2.6-3.1H8.9c-.7 0-1.2-.5-1.2-1.2s.5-1.2 1.2-1.2h3.9c2.8 0 5.1 2.5 5.1 5.6s-2.4 5.4-5.2 5.4zm11.1 13.9c-3.2 0-6.1-2-7.2-5l-1.3-3.4c-.3-.6-.1-1.3.5-1.6s1.3-.1 1.6.5c0 .1.1.2.1.3l1.3 3.4c.9 2.4 3.3 3.8 5.8 3.4l3.8-.6c.6-.2 1.3.1 1.5.8.2.6-.1 1.3-.8 1.5 0-.1-.1-.1-.2-.1l-3.8.6c-.5.2-.9.2-1.3.2zm1.9-11.6c-.7 0-1.2-.5-1.2-1.2 0-3.4 2.7-6.1 6.1-6.1H32c.7 0 1.2.5 1.2 1.2s-.5 1.2-1.2 1.2h-1.5c-2 0-3.7 1.6-3.7 3.7.1.7-.4 1.2-1.1 1.2z"/>
</svg>