<svg xmlns="http://www.w3.org/2000/svg" xmlns:xlink="http://www.w3.org/1999/xlink" version="1.1" x="0" y="0" width="64" height="64" viewBox="0 0 64 64">
  <g id="mesfichiers">
    <path d="M3.788,55.719 C3.788,57.199 4.988,58.4 6.469,58.4 L26.131,58.4 C27.612,58.4 28.813,57.2 28.813,55.719 L28.813,40.525 L3.788,40.525 L3.788,55.719 z M10.938,44.77 C10.938,44.402 11.239,44.1 11.608,44.1 L20.992,44.1 C21.361,44.1 21.663,44.402 21.663,44.77 L21.663,45.217 C21.663,45.586 21.361,45.888 20.992,45.888 L11.608,45.888 C11.239,45.888 10.938,45.586 10.938,45.217 L10.938,44.77 z M28.813,33.375 L3.788,33.375 C2.799,33.375 2,34.174 2,35.163 L2,37.844 C2,38.335 2.402,38.738 2.894,38.738 L29.706,38.738 C30.198,38.738 30.6,38.335 30.6,37.844 L30.6,35.163 C30.6,34.174 29.801,33.375 28.813,33.375 z" fill="#1D83D4" id="archive_old" display="none"/>
    <path d="M55.974,13.908 L38.072,13.908 L33.445,6.868 C33.244,6.265 32.44,5.862 31.836,5.862 L11.722,5.862 C8.302,5.862 5.687,8.477 5.687,11.897 L5.687,30 L27.813,30 C31.233,30 33.848,32.615 33.848,36.034 L33.848,54.138 L55.974,54.138 C59.393,54.138 62.008,51.523 62.008,48.103 L62.008,19.943 C62.008,16.523 59.393,13.908 55.974,13.908 z M57.985,45.287 L40.687,17.931 L55.974,17.931 C57.181,17.931 57.985,18.736 57.985,19.943 L57.985,45.287 z" fill="#666666" id="dossier"/>
    <path d="M21.5,47.775 L30.6,47.775 L18.5,59.875 L6.4,47.775 L15.5,47.775 L15.5,33.375 L21.5,33.375 L21.5,47.775 z" fill="#119914" id="archive"/>
  </g>
</svg>