<svg xmlns="http://www.w3.org/2000/svg" viewBox="0 0 64 64" width="64" height="64">
  <path fill="#fff" d="M6 9h52v46H6V9z"/>
  <path fill="#1d83d4" d="M22 22h20v20H22V22z"/>
  <path fill="#fff" d="M28 28h8v8h-8v-8z"/>
  <path fill="#888" d="m50 16.9-4.2 4.2-2.8-2.8 4.2-4.2 2.8 2.8zm-33.2-3 4.2 4.2-2.8 2.9-4.2-4.2 2.8-2.9zM14 47.2l4.2-4.2 2.8 2.8-4.2 4.2-2.8-2.8zM45.8 43l4.2 4.2-2.8 2.8-4.2-4.2 2.8-2.8z"/>
  <path fill="#666" d="M58.3 5.8c1.6 0 2.9 1.3 2.9 2.9v46.7c0 1.6-1.3 2.9-2.9 2.9H5.8c-1.6 0-2.9-1.3-2.9-2.9V8.7c0-1.6 1.3-2.9 2.9-2.9h52.5zm-3 5.8H8.7v40.8h46.7V11.6h-.1z"/>
  <path fill="#fff" d="M22.6 23.2h19.7v17.1H22.6V23.2z"/>
  <path fill="#1d83d4" d="M41.4 23.7H22.6V40l10.9-10.7c.5-.5 1.2-.5 1.6 0l6.2 6.4c.1 0 .1-12 .1-12zM20 21.9c0-.6.2-.9.9-.9h22.2c.6 0 .9.2.9.9V42c0 .6-.2.9-.9.9H20.9c-.6 0-.9-.2-.9-.9V21.9z"/>
  <circle fill="#1d83d4" cx="26.8" cy="27.5" r="2.1"/>
</svg>