<svg xmlns="http://www.w3.org/2000/svg" viewBox="0 0 64 64" width="64" height="64">
  <path fill="#666" d="M3.6 33.1h25.7c.9 0 1.6.7 1.6 1.6v25.7c0 .9-.7 1.6-1.6 1.6H3.6c-.9 0-1.6-.7-1.6-1.6V34.7c0-.9.7-1.6 1.6-1.6z"/>
  <path fill="#fff" d="M20 41.5c.1.1.1.3 0 .5l-9.6 9.6c-.1.1-.3.1-.5 0-2-2.3-2.3-5.6-.8-8.3l-1.5-1.6c-.2-.2-.2-.7 0-.9L9.4 39c.3-.3.7-.2.9 0l1.5 1.6c2.6-1.5 5.9-1.2 8.2.9zM20.7 43c2 2 6.1 7.1 2.8 12l-.1.1-.1.1c-4.9 3.3-9.9-1-11.9-2.9.1 0 9.3-9.3 9.3-9.3z"/>
  <path fill="#e895b7" d="M34.7 33.1h25.7c.9 0 1.6.7 1.6 1.6v25.7c0 .9-.7 1.6-1.6 1.6H34.7c-.9 0-1.6-.7-1.6-1.6V34.7c0-.9.7-1.6 1.6-1.6z"/>
  <path fill="#fff" d="M51.1 41.5c.1.1.1.3 0 .5l-9.6 9.6c-.1.1-.3.1-.5 0-2-2.3-2.3-5.6-.8-8.3l-1.5-1.6c-.2-.2-.2-.7 0-.9l1.8-1.8c.3-.3.7-.2.9 0l1.5 1.6c2.6-1.5 5.9-1.2 8.2.9zM51.8 43c2 2 6.1 7.1 2.8 12l-.1.1-.1.1c-4.9 3.3-9.9-1-11.9-2.9.1 0 9.3-9.3 9.3-9.3z"/>
  <path fill="#1d83d4" d="M19.2 2h25.7c.9 0 1.6.7 1.6 1.6v25.7c0 .9-.7 1.6-1.6 1.6H19.2c-.9 0-1.6-.7-1.6-1.6V3.6c0-.9.7-1.6 1.6-1.6z"/>
  <path fill="#fff" d="M35.5 10.3c.1.1.1.3 0 .5l-9.6 9.6c-.1.1-.3.1-.5 0-2-2.3-2.3-5.6-.8-8.3l-1.5-1.6c-.2-.2-.2-.7 0-.9l1.8-1.8c.3-.3.7-.2.9 0l1.5 1.6c2.6-1.4 6-1.1 8.2.9zM36.3 11.9c2 2 6.1 7.1 2.8 12l-.1.1-.1.1c-4.9 3.3-9.9-1-11.9-2.9l9.3-9.3z"/>
</svg>