<svg xmlns="http://www.w3.org/2000/svg" viewBox="0 0 64 64" width="64" height="64">
  <path fill="#fff" d="M46.7 29.6V4.9c0-1-.9-1.9-1.9-1.9H4.9C3.9 3 3 3.9 3 4.9v33.3c0 1 .9 1.9 1.9 1.9H31c2.6-6.2 8.7-10.5 15.7-10.5z" id="Calque_7"/>
  <path fill="#666" d="M14.5 31.5v-16L10 19.4v-5.2l4.5-3.9h4.9v21.3h-4.9zM32.2 31.7c-3.5 0-6.8-2.2-6.8-6.6v-8.4c0-4.4 3.3-6.6 6.8-6.6s6.8 2.2 6.8 6.6v8.4c0 4.4-3.3 6.6-6.8 6.6zm1.9-15c0-1.5-.9-2.2-1.9-2.2-1 0-1.9.7-1.9 2.2v8.4c0 1.5.9 2.2 1.9 2.2 1 0 1.9-.7 1.9-2.2v-8.4z"/>
  <circle cx="46.7" cy="46.7" r="14.3" fill="#1d83d4"/>
  <g transform="translate(30.8 30) scale(0.5)">
    <circle fill="none" cx="32" cy="32" r="30"/>
    <path fill="#fff" d="M14.5 56.4c4.9 3.5 11 5.6 17.5 5.6s12.6-2.1 17.5-5.6v-5.3h-35v5.3z"/>
    <path fill="#fff" d="M49.5 55.4h-35V51c0-6 4.9-10.9 10.9-10.9h13.1c6 0 10.9 4.9 10.9 10.9v4.4z"/>
    <path fill="#fff" d="M32 35.8c-7.2 0-13.1-5.9-13.1-13.1S24.8 9.5 32 9.5s13.1 5.9 13.1 13.1S39.2 35.8 32 35.8z"/>
  </g>
</svg>