<svg xmlns:dc="http://purl.org/dc/elements/1.1/" xmlns:cc="http://creativecommons.org/ns#" xmlns:rdf="http://www.w3.org/1999/02/22-rdf-syntax-ns#" xmlns:svg="http://www.w3.org/2000/svg" xmlns="http://www.w3.org/2000/svg" xmlns:sodipodi="http://sodipodi.sourceforge.net/DTD/sodipodi-0.dtd" xmlns:inkscape="http://www.inkscape.org/namespaces/inkscape" viewBox="0 0 64 64" width="64" height="64" version="1.1" id="svg13" sodipodi:docname="rechremp-xx.svg" inkscape:version="1.0.1 (3bc2e813f5, 2020-09-07)" inkscape:export-filename="/home/jluc/Images/rechremp-16.png" inkscape:export-xdpi="24" inkscape:export-ydpi="24">
  <metadata id="metadata19"/>
  <defs id="defs17"/>
  <path fill="#fff" d="M12.2 9.3h39.7v45.3H12.2z" id="Calque_3"/>
  <path fill="#666" d="M54.7 3.7H9.3C7.7 3.7 6.5 5 6.5 6.5v51c0 1.6 1.3 2.8 2.8 2.8h45.3c1.6 0 2.8-1.3 2.8-2.8v-51c.1-1.6-1.2-2.8-2.7-2.8zm-2.9 51H12.2V9.3h39.7v45.4z" id="path3"/>
  <path fill="#666666" d="m 20.5,42 h 15 v 6 h -15 z m 0,-13 h 23 v 6 h -23 z m 0,-13 h 23 v 6 h -23 z" id="path5"/>
  <path fill="currentColor" d="M 38.615434,35.389324 C 44.146042,28.137374 42.29634,18.09555 34.486632,12.961154 26.676922,7.826759 15.862769,9.543131 10.333479,16.796308 4.804191,24.048261 6.652573,34.088854 14.463601,39.22325 c 5.574214,3.664624 12.943956,3.9468 18.823366,0.722619 l 12.774836,11.791322 c 1.379352,1.348315 3.674303,1.402297 5.126319,0.121463 1.452017,-1.279613 1.510151,-3.410659 0.132122,-4.758976 -0.04362,-0.04295 -0.08588,-0.08221 -0.132122,-0.12268 z m -14.151549,1.099265 c -6.171402,0.0012 -11.17484,-4.6412 -11.17881,-10.371847 -0.0013,-5.730651 4.998162,-10.376758 11.170883,-10.379209 6.163473,-0.0026 11.164277,4.632611 11.176171,10.355894 0.01059,5.731879 -4.986272,10.385346 -11.160314,10.395162 -0.0027,0 -0.0038,0 -0.0078,0 z m 0,0" id="path2" style="fill:#1d83d4;fill-opacity:1;stroke-width:0.325929"/>
  <ellipse style="fill:#80e1e5;fill-opacity:1;stroke-width:0.992889" id="path882" cx="24.513945" cy="26.117052" rx="11.165359" ry="10.37956"/>
</svg>