<svg xmlns="http://www.w3.org/2000/svg" viewBox="0 0 64 64" width="64" height="64">
  <path fill="#fff" d="M6.5 7.3H52v39.8H6.5V7.3z"/>
  <path fill="#666" d="M25 26.9c0-1.1.9-2 2-2h4.3v-2.1c0-1.1.9-2 2-2h2.4l-2-2.1c-.9-1-2.5-1-3.5 0L7.4 40.8V7.3h39.3v13.5H52v-17c0-1.4-.4-1.8-1.8-1.8H3.8C2.4 2 2 2.4 2 3.8v41.5c0 1.3.4 1.7 1.8 1.7H25V26.9z"/>
  <ellipse fill="#666" cx="18.1" cy="18.8" rx="4.5" ry="4.4"/>
  <path fill="#fff" d="M30.7 31.1h28v27.8h-28z"/>
  <path fill="#1d83d4" d="M54.3 23.7v3.8h5.8c1.1 0 1.9.9 1.9 1.9v30.7c0 1.1-.9 1.9-1.9 1.9H29.4c-1.1 0-1.9-.9-1.9-1.9V29.4c0-1.1.9-1.9 1.9-1.9h5.8v-3.8h19.1zm-19.1 7.6h-3.8v26.8h26.8V31.3h-3.8v3.8H35.2v-3.8zm15.3-3.8H39v3.8h11.5v-3.8z"/>
</svg>