<svg xmlns="http://www.w3.org/2000/svg" viewBox="0 0 64 64" width="64" height="64">
  <path fill="#f78422" d="M10.5 3h17.2C28.9 3 30 4.1 30 5.4v17.2c0 1.3-1.1 2.4-2.4 2.4H10.5C9.1 25 8 23.9 8 22.5V5.4C8 4.1 9.1 3 10.5 3z"/>
  <path fill="#fff" d="M21.4 10.7c-3-3-6.9-4.6-11.2-4.6v3.1c3.4 0 6.6 1.3 9 3.7 2.4 2.4 3.7 5.6 3.7 9H26c0-4.3-1.6-8.3-4.6-11.2z"/>
  <path fill="#fff" d="M10.2 11.3v3.1c4.1 0 7.4 3.3 7.4 7.4h3.1c0-5.8-4.7-10.5-10.5-10.5z"/>
  <circle fill="#fff" cx="12.4" cy="19.7" r="2.2"/>
  <path fill="#1d83d4" d="M47.8 22.1C47.1 15 41 9.6 34 9.4v4.5c2.1.1 4.2.9 6 2.5 1.7 1.5 2.8 3.6 3.1 5.7h-6.5L45 32l8.8-9.8-6-.1z"/>
  <path fill="#888" d="M52 56H38c-1.1 0-2-.9-2-2V36c0-1.1.9-2 2-2h14c1.1 0 2 .9 2 2v18c0 1.1-.9 2-2 2z"/>
  <path fill="#fff" d="M38 36h14v17.8H38V36z"/>
  <path fill="#666" d="M40 40h10v2H40v-2zm0 4h10v2H40v-2zm0 4h6v2h-6v-2z"/>
</svg>