<svg xmlns="http://www.w3.org/2000/svg" viewBox="0 0 64 64" width="64" height="64">
  <path fill="#ffbf00" d="M42 16h20c.9 1.2-.2 3.4-1.9 4.7l-9.6 7.1c-1.7 1.3-3.9 1.3-4.8.1l-5.5-7.4c-1-1.2.1-3.2 1.8-4.5"/>
  <path fill="#666" d="m42.1 24-1-2c2.2-1.5 3.6-4 3.6-6.8 0-4.5-3.7-8.2-8.2-8.2s-8.2 3.7-8.2 8.2c0 .8.1 1.6.3 2.3.1.5.2.9.3 1.4l.3.6 3.7 8.4-.9.9-5-5.3c-1.6-1.6-3.7-2.5-6-2.5H2.4l18.3 20.7L6.6 54.5l18.7-4.3 4.5-1.3c3.5-.8 6.3-2.6 9.1-4.8 6.9-5.5 7.9-13.4 3.2-20.1zm-5.3-6.8c-1.5 0-2.7-1.2-2.7-2.7 0-1.5 1.2-2.7 2.7-2.7 1.5 0 2.7 1.2 2.7 2.7 0 1.5-1.2 2.7-2.7 2.7z"/>
</svg>