<svg xmlns="http://www.w3.org/2000/svg" viewBox="0 0 64 64" width="64" height="64">
  <path fill="#fff" transform="rotate(45 32.00048284 31.9998)" d="M23.9 23.9h16.3v16.3H23.9z"/>
  <path fill="#d86600" d="M58.5 41.6c-2-4.2-6.1-5.8-10-5.6-2.9.2-5.5 1.2-7.8 3.1-3.7 3-4.8 7-3.1 11.2 1.6 4.1 5.7 6.4 10 5.6.3-.1.6-.1.8-.2 1.9-1.3 3.6-2.9 5.2-4.6.5-1.2.7-2.6.5-3.9-.4-2.4-1.8-4.2-4.2-5-2.4-.8-4.6-.2-6.4 1.6-2.2 2.1-1.4 5.4 1.4 6.6.6.3 1.3.3 1.9.1 1.3-.4 1.6-.8 1.2-2.3-.1-.4-.4-.6-.8-.7-.6-.1-1.1-.1-1.7-.2-.5-.1-1-.9-.7-1.3.6-.8 1.3-1.5 2.3-1.6 1.5-.2 3.1.9 3.6 2.5.6 1.9-.5 4.4-2.4 5.3-2.2 1-4.3.8-6.2-.6-1.9-1.5-2.8-3.4-2.4-5.8.5-2.5 1.8-4.4 4.3-5.4 1.5-.6 3.1-.9 4.7-1 2.8 0 5 1.1 6.4 3.4.8 1.4 1.3 2.9 1.4 4.4.9-1.5 1.7-3.1 2.4-4.8-.2-.3-.3-.6-.4-.8z"/>
  <path fill="#d86600" d="M43.9 57.9c-1.8-.1-3.5-.6-5-1.6-2.7-1.8-4-4.5-4.3-7.6-.4-4.1.9-7.7 3.7-10.7 2.5-2.7 5.6-4.2 9.4-3.9 2.9.2 5.7.5 8.6.7.9.1 1.8.1 2.7.2v-7.5h-.2c-.3 0-.7.1-1 .1-3.4.6-6.8.8-10.2.8-2.7 0-5.2-.6-7.5-2.1-4.3-3-6.5-8.7-5.3-13.9.8-3.6 3-6.1 6.5-7.2-1.7-.6-3.4-1-5.2-1.3-1.3 1-2.4 2.2-3.3 3.7-.2.4-.5.7-.7 1.2-.2-.3-.4-.5-.6-.8-1.1-1.6-2.4-3-3.9-4-1.9.3-3.8.8-5.6 1.5.9.2 1.7.4 2.5.9 3.5 1.8 5.2 4.8 5.5 8.5.3 4-1 7.5-3.7 10.5-2.3 2.5-5.1 4-8.5 3.8-3.1-.1-6.2-.4-9.3-.6-1-.1-1.9-.2-2.9-.2v5.8h4.2c2.6.1 5.3.1 7.9.3 1.9.1 3.7.8 5.3 1.8 4.7 3.2 7 9.6 5.4 15-1.1 3.6-3.4 6-7.2 6.8-.3.1-.6.1-.9.2 1.8.8 3.7 1.4 5.6 1.9 1.9-1.1 3.4-2.7 4.6-4.8.4-.7.7-1.4 1.1-2.2.4.7.8 1.3 1.2 1.9 1.4 2.2 3.1 4 5.3 5.1 2.2-.5 4.3-1.2 6.3-2.2-.1 0-.3-.1-.5-.1zM37 26.8c.1.1-.9 1.7-2.1 3.2-.3 0-.6 0-.9-.1 0-.3-.1-.7-.1-1 1.5-1.2 2.9-2.2 3.1-2.1zm-9.1.3s1.1.8 2.3 1.8c0 .3 0 .6-.1 1-.4 0-.7 0-1.1.1-1.5-1.8-3-3.8-1.1-2.9zm-.6 8.9s.8-1.1 1.9-2.3h.2c.3 0 .5 0 .7.1 0 .4 0 .7.1 1.1-1.9 1.5-3.8 3-2.9 1.1zm4.1 4.7c-.3-.8-.6-4.1-.7-7.6-3.3-.1-10.3-1-6.8-1.9 0 0 1.7-.4 6.8-.7.2-3.5.7-8.5 1.2-8.5.4 0 1.2 5.4 1.4 8.5 3.2.2 7.8.7 7.8 1.2 0 .4-4.8 1.1-7.8 1.3-.2 2.8-.7 11.5-1.9 7.7zm2.6-6.9c.3 0 .6-.1.9-.1 1.3 1.5 2.3 3 2.2 3.2-.1.1-1.6-.9-3.1-2.1v-1z"/>
  <path fill="#d86600" d="M36.8 15.7c-.1 3 1.2 5.5 3.5 7.5 2.7 2.3 5.8 3.3 9.4 3.3 3.4 0 6.1-1.4 8-4.2.3-.4.5-.8.8-1.3-.6-1.5-1.4-2.9-2.2-4.3-.2.7-.5 1.5-.8 2.2-.9 2-2.5 3.2-4.6 3.8-2.2.6-4.4.3-6.6-.5-1.8-.7-3.1-1.9-3.8-3.6-1-2.3-1-4.6.6-6.6 1.3-1.7 3.2-2.3 5.3-2.2 2 .1 3.4 1.1 4.2 2.9 1.1 2.5-.2 4.2-1.5 5-1.6.9-3.2.5-4.2-1.1-.3-.4.2-1.3.7-1.3.5 0 1.1 0 1.6-.1.9-.1 1.5-1.6.9-2.2-.6-.7-1.3-1.1-2.3-1-1.5.2-2.5 1-3.1 2.3-.6 1.4-.6 2.7.3 4 2.2 3 8.1 3.7 10.5-1.2.5-1.1.7-2.1.6-3.2-2.5-3.1-5.7-5.6-9.3-7.4-.2 0-.4 0-.6.1-4.6 1-7.3 5.3-7.4 9.1zM13.8 27.2c4.1.5 7.7-.8 10.7-3.5 3.1-2.8 4-6.7 2.5-10.6-1.5-3.7-5-6.1-8.9-5.8-2.8 1.6-5.3 3.6-7.4 6-.2.8-.2 1.7-.1 2.7.2 2.4 1.5 4.1 3.7 5 2.3.9 4.5.6 6.4-1 1.6-1.3 2.1-2.9 1.4-4.6-.6-1.5-2.3-3.1-4.4-2.3-1.1.4-1.3.5-1.1 1.9.1.5.4.9.9.9.6.1 1.2.1 1.7.2.2 0 .4.2.5.3.6.8.4 1.5-.5 2l-.9.3c-1.1.2-2.1 0-3.1-.5s-1.5-1.3-1.5-2.4c-.1-2.9 1.9-5 4.7-5.2 2.2-.1 4.1.6 5.4 2.5 1.9 2.8 1.4 7.5-2.7 9.6-2.1 1.1-4.3 1.4-6.5 1-1.6-.2-3-.8-4.1-2-1.3-1.5-2.1-3.3-2.4-5.1-.9 1.4-1.7 2.9-2.4 4.5 1.4 3.5 4.2 5.6 8.1 6.1zM25.2 42.2c-2.7-4.2-6.7-6.2-11.8-6-2.5.1-4.7 1-6.4 2.7-.8.8-1.5 1.6-2 2.5.5 1.6 1.2 3.1 2 4.5.7-2.5 2.5-4.7 4.9-5.6 3.3-1.3 6.4-.7 9.2 1.3 1.7 1.2 2.6 3 2.7 5.2.1 2.6-1.8 6.3-6 6.4-3.6.1-5.2-2.5-5.3-5-.1-2.2 2-3.9 4.4-3.6 1.3.2 2 1.3 1.7 2.6-.1.3-.2.5-.5.5-.5 0-1 .1-1.6 0-.8 0-1 .1-1.3.8-.1.2-.1.4-.1.6-.1.7.8 1.8 1.5 1.8h.2c.8-.3 1.6-.6 2.3-1 1.8-1 2.4-3.2 1.4-5-1.6-2.9-5.5-3.8-8.3-1.9-2.4 1.6-3.1 3.8-2.8 6.5 2.1 2.7 4.7 5.1 7.6 6.9.8.1 1.5 0 2.2-.1 6.2-1.3 9.4-8.7 6-14.1z"/>
</svg>