<svg xmlns="http://www.w3.org/2000/svg" viewBox="0 0 64 64" width="64" height="64">
  <path fill="#fff" d="M9 7h47v37H9z"/>
  <path fill="#f3f3f3" d="M9 44h47v14H9z"/>
  <path fill="#1d83d4" d="M29 13h6v24h-6z"/>
  <path fill="#1d83d4" transform="rotate(-90 32 22)" d="M29 12h6v20h-6z"/>
  <path fill="#666" d="M5.5 51.7V11.9c0-4.9 4-8.8 8.8-8.8h41.2c1.6 0 2.9 1.3 2.9 2.9v53c0 1.6-1.3 2.9-2.9 2.9H15.8c-5.7.1-10.3-4.5-10.3-10.2zm47.1 4.4v-8.8H15.8c-2.4 0-4.4 2-4.4 4.4 0 2.4 2 4.4 4.4 4.4h36.8zM11.4 42.4c1.4-.7 2.9-1 4.4-1h36.8V9H14.3c-1.6 0-2.9 1.3-2.9 2.9v30.5z"/>
</svg>