<svg xmlns="http://www.w3.org/2000/svg" viewBox="0 0 64 64" width="64" height="64">
  <g class="skel" transform="translate(-3.33 -6)">
    <path fill="#fff" d="M44.2 13.4c-2.1 4.6-6.6 7.7-11.6 7.9H32c-5.3 0-10-3.1-12.2-7.9v-.1h-9.1v13.3h8v24h26.7v-24h8V13.3h-9.1l-.1.1z"/>
    <path fill="#666" d="M24 8c0 4.4 3.6 8 8 8s8-3.6 8-8h16c1.5 0 2.7 1.2 2.7 2.7v18.7c0 1.5-1.2 2.7-2.7 2.7h-5.3v21.3c0 1.5-1.2 2.7-2.7 2.7H16c-1.5 0-2.7-1.2-2.7-2.7V32.1L8 32c-1.5 0-2.7-1.2-2.7-2.7V10.7C5.3 9.2 6.5 8 8 8h16zm29.3 5.3h-9.1v.1c-2.1 4.6-6.6 7.7-11.6 7.9H32c-5.3 0-10-3.1-12.2-7.9v-.1h-9.1v13.3h8v24h26.7v-24h8c-.1.1-.1-13.3-.1-13.3z"/>
  </g>
  <g class="mot" transform="translate(24 16) scale(0.75)">
    <path fill="#1d83d4" d="M52 43.1L31 6.7l-.2-.3c-1-1.7-2.8-2.9-4.8-3.2L11.3 1.3c-1.6-.2-3.2.7-3.8 2.2L1.8 17.2c-.8 1.9-.6 4 .4 5.7l21.2 36.8c1.7 2.9 5.5 4 8.4 2.3l2.7-1.6 15.2-8.8c3-1.8 4-5.5 2.3-8.5zm-38.8-27c-1.1-1.9-.4-4.4 1.5-5.5 1.9-1.1 4.4-.4 5.5 1.5 1.1 1.9.4 4.4-1.5 5.5-1.9 1.1-4.4.4-5.5-1.5z"/>
  </g>
</svg>