<svg xmlns="http://www.w3.org/2000/svg" xmlns:xlink="http://www.w3.org/1999/xlink" xmlns:serif="http://www.serif.com/" width="100" height="100" viewBox="0 0 60 36" version="1.1" xml:space="preserve" style="fill-rule:evenodd;clip-rule:evenodd;stroke-linejoin:round;stroke-miterlimit:2;">
    <path fill="#666" d="M4,34L3,34C1.342,34 0,32.657 0,31L0,11C0,8.581 1.718,6.563 4,6.1L4,5C4,2.239 6.239,0 9,0L18.764,0C19.629,0 20.439,0.373 21,1C21.561,0.373 22.37,0 23.236,0L36.764,0C37.629,0 38.439,0.373 39,1C39.561,0.373 40.371,0 41.236,0L51,0C53.761,0 56,2.239 56,5L56,6.1C58.282,6.563 60,8.581 60,11L60,31C60,32.657 58.658,34 57,34L56,34L56,35C56,35.552 55.552,36 55,36C54.448,36 54,35.552 54,35L54,34L6,34L6,35C6,35.552 5.552,36 5,36C4.448,36 4,35.552 4,35L4,34ZM5,8C3.343,8 2,9.343 2,11L2,31C2,31.553 2.447,32 3,32L8,32L8,11C8,9.343 6.657,8 5,8ZM54,6.1L54,5C54,3.343 52.657,2 51,2L41.236,2C40.857,2 40.511,2.214 40.341,2.553L40,3.236L40,18L50,18L50,11C50,8.581 51.718,6.563 54,6.1ZM38,3.236L37.659,2.553C37.489,2.214 37.143,2 36.764,2L23.236,2C22.857,2 22.511,2.214 22.341,2.553L22,3.236L22,18L38,18L38,3.236ZM20,3.236L19.659,2.553C19.489,2.214 19.143,2 18.764,2L9,2C7.343,2 6,3.343 6,5C6,5 6,6.1 6,6.1C8.282,6.563 10,8.581 10,11L10,18L20,18L20,3.236ZM52,32L57,32C57.553,32 58,31.553 58,31L58,11C58,9.343 56.657,8 55,8C53.343,8 52,9.343 52,11L52,19C52,20.308 52,21.67 52,23L52,32ZM10,32L50,32L50,24L10,24L10,32ZM50,20L10,20L10,22L50,22L50,20Z"/>
</svg>