<svg xmlns="http://www.w3.org/2000/svg" width="64" height="64" viewBox="0 0 64 64">
  <path d="M7.5 18.812c0 1.381 1.119 2.5 2.5 2.5s2.5-1.119 2.5-2.5v-6.25h6.125c1.381 0 2.5-1.119 2.5-2.5 0-1.38-1.119-2.5-2.5-2.5H12.5v-5c0-1.38-1.119-2.5-2.5-2.5s-2.5 1.12-2.5 2.5v5h-5c-1.381 0-2.5 1.12-2.5 2.5 0 1.381 1.119 2.5 2.5 2.5h5v6.25zm46.5 7.5c-1.381 0-2.5 1.12-2.5 2.5v6.5c0 1.381 1.119 2.5 2.5 2.5s2.5-1.119 2.5-2.5v-6.5c0-1.38-1.119-2.5-2.5-2.5zm-8.75-13.75h1.25c2.757 0 5 2.243 5 5v1.25c0 1.381 1.119 2.5 2.5 2.5s2.5-1.119 2.5-2.5v-1.25c0-5.513-4.486-10-10-10h-1.25c-1.381 0-2.5 1.12-2.5 2.5 0 1.381 1.119 2.5 2.5 2.5zM10 26.312c-1.381 0-2.5 1.12-2.5 2.5v6.5c0 1.381 1.119 2.5 2.5 2.5s2.5-1.119 2.5-2.5v-6.5c0-1.38-1.119-2.5-2.5-2.5zm8.75 25.126H17.5c-2.757 0-5-2.243-5-5v-1.126c0-1.38-1.119-2.5-2.5-2.5s-2.5 1.12-2.5 2.5v1.126c0 5.513 4.486 10 10 10h1.25c1.381 0 2.5-1.12 2.5-2.5 0-1.381-1.119-2.5-2.5-2.5zm42.75 0h-5v-6.126c0-1.38-1.119-2.5-2.5-2.5s-2.5 1.12-2.5 2.5v6.126h-6.25c-1.381 0-2.5 1.119-2.5 2.5 0 1.38 1.119 2.5 2.5 2.5h6.25v5c0 1.38 1.119 2.5 2.5 2.5s2.5-1.12 2.5-2.5v-5h5c1.381 0 2.5-1.12 2.5-2.5 0-1.381-1.119-2.5-2.5-2.5zM35.25 7.562h-6.5c-1.381 0-2.5 1.12-2.5 2.5 0 1.381 1.119 2.5 2.5 2.5h6.5c1.381 0 2.5-1.119 2.5-2.5 0-1.38-1.119-2.5-2.5-2.5zm0 43.876h-6.5c-1.381 0-2.5 1.119-2.5 2.5 0 1.38 1.119 2.5 2.5 2.5h6.5c1.381 0 2.5-1.12 2.5-2.5 0-1.381-1.119-2.5-2.5-2.5z" fill="#1D83D4"/>
  <path d="M7.5 18.812c0 1.381 1.119 2.5 2.5 2.5s2.5-1.119 2.5-2.5v-6.25h6.125c1.381 0 2.5-1.119 2.5-2.5 0-1.38-1.119-2.5-2.5-2.5H12.5v-5c0-1.38-1.119-2.5-2.5-2.5s-2.5 1.12-2.5 2.5v5h-5c-1.381 0-2.5 1.12-2.5 2.5 0 1.381 1.119 2.5 2.5 2.5h5v6.25zm46.5 7.5c-1.381 0-2.5 1.12-2.5 2.5v6.5c0 1.381 1.119 2.5 2.5 2.5s2.5-1.119 2.5-2.5v-6.5c0-1.38-1.119-2.5-2.5-2.5zm-8.75-13.75h1.25c2.757 0 5 2.243 5 5v1.25c0 1.381 1.119 2.5 2.5 2.5s2.5-1.119 2.5-2.5v-1.25c0-5.513-4.486-10-10-10h-1.25c-1.381 0-2.5 1.12-2.5 2.5 0 1.381 1.119 2.5 2.5 2.5zM10 26.312c-1.381 0-2.5 1.12-2.5 2.5v6.5c0 1.381 1.119 2.5 2.5 2.5s2.5-1.119 2.5-2.5v-6.5c0-1.38-1.119-2.5-2.5-2.5zm8.75 25.126H17.5c-2.757 0-5-2.243-5-5v-1.126c0-1.38-1.119-2.5-2.5-2.5s-2.5 1.12-2.5 2.5v1.126c0 5.513 4.486 10 10 10h1.25c1.381 0 2.5-1.12 2.5-2.5 0-1.381-1.119-2.5-2.5-2.5zm42.75 0h-5v-6.126c0-1.38-1.119-2.5-2.5-2.5s-2.5 1.12-2.5 2.5v6.126h-6.25c-1.381 0-2.5 1.119-2.5 2.5 0 1.38 1.119 2.5 2.5 2.5h6.25v5c0 1.38 1.119 2.5 2.5 2.5s2.5-1.12 2.5-2.5v-5h5c1.381 0 2.5-1.12 2.5-2.5 0-1.381-1.119-2.5-2.5-2.5zM35.25 7.562h-6.5c-1.381 0-2.5 1.12-2.5 2.5 0 1.381 1.119 2.5 2.5 2.5h6.5c1.381 0 2.5-1.119 2.5-2.5 0-1.38-1.119-2.5-2.5-2.5zm0 43.876h-6.5c-1.381 0-2.5 1.119-2.5 2.5 0 1.38 1.119 2.5 2.5 2.5h6.5c1.381 0 2.5-1.12 2.5-2.5 0-1.381-1.119-2.5-2.5-2.5z" stroke="#1D83D4" fill="none"/>
  <path d="M36.167 62H7.833C4.617 62 2 59.383 2 56.167V40.333C2 37.117 4.617 34.5 7.833 34.5h2.5c.26 0 .51-.123.664-.33l3.14-3.543c1.109-1.247 2.696-1.96 4.36-1.96h7.006c1.664 0 3.254.713 4.36 1.956l3.007 3.384c.287.37.537.493.797.493h2.5c3.216 0 5.833 2.617 5.833 5.833v15.834C42 59.383 39.383 62 36.167 62zM7.833 39.5c-.459 0-.833.374-.833.833v15.834c0 .459.374.833.833.833h28.334c.459 0 .833-.374.833-.833V40.333c0-.459-.374-.833-.833-.833h-2.5c-1.831 0-3.574-.873-4.667-2.336l-2.873-3.221c-.157-.176-.387-.276-.624-.276h-7.006c-.237 0-.467.103-.627.279l-3.003 3.381c-.96 1.3-2.707 2.173-4.534 2.173zm0 0" fill="#FFF"/>
  <path d="M36.167 62H7.833C4.617 62 2 59.383 2 56.167V40.333C2 37.117 4.617 34.5 7.833 34.5h2.5c.26 0 .51-.123.664-.33l3.14-3.543c1.109-1.247 2.696-1.96 4.36-1.96h7.006c1.664 0 3.254.713 4.36 1.956l3.007 3.384c.287.37.537.493.797.493h2.5c3.216 0 5.833 2.617 5.833 5.833v15.834C42 59.383 39.383 62 36.167 62zM7.833 39.5c-.459 0-.833.374-.833.833v15.834c0 .459.374.833.833.833h28.334c.459 0 .833-.374.833-.833V40.333c0-.459-.374-.833-.833-.833h-2.5c-1.831 0-3.574-.873-4.667-2.336l-2.873-3.221c-.157-.176-.387-.276-.624-.276h-7.006c-.237 0-.467.103-.627.279l-3.003 3.381c-.96 1.3-2.707 2.173-4.534 2.173zm0 0" stroke="#FFF" stroke-width="5" fill="none"/>
  <path d="M33.693 37.226H31.63c-.213 0-.42-.103-.657-.406l-2.483-2.794c-.913-1.026-2.223-1.613-3.597-1.613h-5.78c-1.373 0-2.683.59-3.6 1.617l-2.59 2.924c-.13.173-.333.272-.549.272h-2.067c-2.654 0-4.814 2.16-4.814 4.814v13.067c0 2.653 2.16 4.813 4.814 4.813H33.69c2.653 0 4.813-2.16 4.813-4.813V42.04c.004-2.654-2.156-4.814-4.81-4.814zm0 0" fill="#666"/>
  <g>
    <path d="M27.607 45.39c0 3.096-2.511 5.607-5.607 5.607s-5.607-2.511-5.607-5.607 2.511-5.607 5.607-5.607 5.607 2.511 5.607 5.607zm0 0" fill="#FFF"/>
    <path d="M27.607 45.39c0 3.096-2.511 5.607-5.607 5.607s-5.607-2.511-5.607-5.607 2.511-5.607 5.607-5.607 5.607 2.511 5.607 5.607zm0 0" stroke="#FFF" stroke-width="3.75" fill="none"/>
  </g>
  <path d="M36.167 62H7.833C4.617 62 2 59.383 2 56.167V40.333C2 37.117 4.617 34.5 7.833 34.5h2.5c.26 0 .51-.123.664-.33l3.14-3.543c1.109-1.247 2.696-1.96 4.36-1.96h7.006c1.664 0 3.254.713 4.36 1.956l3.007 3.384c.287.37.537.493.797.493h2.5c3.216 0 5.833 2.617 5.833 5.833v15.834C42 59.383 39.383 62 36.167 62zM7.833 39.5c-.459 0-.833.374-.833.833v15.834c0 .459.374.833.833.833h28.334c.459 0 .833-.374.833-.833V40.333c0-.459-.374-.833-.833-.833h-2.5c-1.831 0-3.574-.873-4.667-2.336l-2.873-3.221c-.157-.176-.387-.276-.624-.276h-7.006c-.237 0-.467.103-.627.279l-3.003 3.381c-.96 1.3-2.707 2.173-4.534 2.173zm0 0" fill="#666"/>
</svg>