<svg xmlns="http://www.w3.org/2000/svg" viewBox="0 0 64 64" width="64" height="64">
  <path fill="#666" d="M16.5 18.6h.2c.3 0 .5.1.9.2.1 0 .2.1.3.1h.1c.1.1.2.1.3.2.3.2.5.4.8.8.1.2.2.3.3.5C23 28.3 26.1 36.3 29.6 44c.2.5.3 1.1.2 1.7-.1 1.2-.9 2.3-2.1 2.7-.3.1-.6.2-1 .2s-.8 0-1.2-.1-.8-.3-1.1-.5c-.4-.3-.8-.8-1-1.2-.8-1.6-1.5-3.1-2.2-4.9h-9.8c-.6 1.6-1.3 3.1-2.1 4.7-.2.5-.5 1-1.1 1.3-.3.2-.5.3-.9.4-1.1.3-2.4.1-3.2-.6-.3-.2-.5-.5-.8-1-.2-.2-.3-.7-.3-1-.1-.5 0-1 .2-1.6 3.1-8 6.7-15.8 10.2-23.7.1-.2.2-.4.3-.5.2-.3.4-.5.8-.8.1-.1.2-.1.3-.2 0 0 .1 0 .1-.1.1 0 .2-.1.2-.1.2-.1.5-.2.9-.2.3.2.4.2.5.1zm.1 12c-.6 1.6-1.3 3.1-2.1 4.8h3.9c-.5-1.6-1-3.2-1.8-4.8z"/>
  <path fill="#1d83d4" d="M55.4 48.5c-2.8 0-4.4-1.4-4.8-3.6-3.5 2.8-5.1 3.8-7.9 3.8-3 0-6-1.9-6-5.3 0-5.3 5.7-7.6 13.9-8.9v-.1c0-4.6-1.5-5.9-4.1-5.9-1.4 0-3.4.8-3.4 2.4 0 1.7-1.1 2.7-2.5 2.7s-2.5-1-2.5-2.7c0-3.1 4.6-5 9.1-5 6.9 0 9.9 2.6 9.9 8.5v8.4c0 1.6.5 2.4 1.3 2.4s1.4-.4 1.9-.8l.9 1.7c-1.7 1.5-4.3 2.4-5.8 2.4zM50.7 37c-4.8 1.3-7.7 2.5-7.7 5.6 0 1.9 1.2 2.5 2.4 2.5 1.1 0 3.1-.9 5.3-2.8V37z"/>
</svg>