<svg width="123" height="14" viewBox="0 0 123 14" fill="none" xmlns="http://www.w3.org/2000/svg">
<path d="M35.6322 0.233284H31.4781V13.7431H34.1819V8.33537H37.3021C38.4177 8.33537 39.3725 8.73244 40.1667 9.52656C40.9545 10.3207 41.3484 11.2755 41.3484 12.3911V13.7431H44.0523V12.3911C44.0523 11.3071 43.8065 10.286 43.3148 9.32805C42.8421 8.39523 42.1867 7.6137 41.3484 6.98345C42.1867 6.35319 42.8421 5.57478 43.3148 4.64829C43.8065 3.69031 44.0523 2.66611 44.0523 1.57575V0.233284H35.6322ZM41.1215 2.92767C40.8379 3.7281 40.3526 4.37729 39.6656 4.8752C38.9597 5.37941 38.1719 5.6315 37.3021 5.6315H34.1819V2.92767H41.1215Z" fill="black"/>
<path d="M86.7668 0.257385H85.7202C84.2264 0.257385 82.9533 0.783653 81.9008 1.83621C80.8419 2.89505 80.3125 4.16818 80.3125 5.6556V8.35947H90.0311C90.0311 9.10317 89.7696 9.73974 89.2465 10.2692C88.7171 10.7986 88.0805 11.0633 87.3367 11.0633H80.3125V13.7672H88.0834C88.0841 13.7511 88.0842 13.7351 88.0849 13.719C89.2554 13.5682 90.2795 13.0556 91.1562 12.1789C92.2087 11.1263 92.735 9.8532 92.735 8.35947V5.6556H83.0163C83.0163 4.91189 83.281 4.27532 83.8104 3.74589C84.3399 3.21646 84.9764 2.95177 85.7201 2.95177H92.735V0.257385H86.7668Z" fill="black"/>
<path d="M100.258 11.2222V13.7376C101.752 13.7376 102.962 12.542 102.962 11.0671L102.961 8.81516V7.02753L108.185 0.235222H104.782L101.663 4.28627L98.5882 0.291546H95.1753L100.257 6.8897V8.81516L100.258 11.2222Z" fill="black"/>
<path d="M4.81864 0.328613H0V2.90657H4.81864V0.328613Z" fill="black"/>
<path d="M4.87413 5.67623V13.6733C6.34903 13.6733 7.54469 12.4777 7.54469 11.0028V2.94763H12.4348V0.277077H10.2733C7.29141 0.277077 4.87413 2.69435 4.87413 5.67623Z" fill="black"/>
<path d="M21.6851 2.92767H25.4336C26.9216 2.92767 28.1279 1.72137 28.1279 0.233284H15.8571V13.7431H25.4335C26.9216 13.7431 28.1279 12.5367 28.1279 11.0487V11.0392H18.5609V8.33537H25.4335C26.9216 8.33537 28.1279 7.12907 28.1279 5.64098V5.6315H18.5609V2.92767H21.6851Z" fill="black"/>
<path d="M53.5305 2.92767H57.2789C58.7669 2.92767 59.9733 1.72137 59.9733 0.233284H47.7024V13.7431H57.2789C58.7669 13.7431 59.9732 12.5367 59.9732 11.0487V11.0392H50.4062V8.33537H57.2788C58.7669 8.33537 59.9732 7.12907 59.9732 5.64098V5.6315H50.4062V2.92767H53.5305Z" fill="black"/>
<path d="M117.032 0.232834H115.985C114.491 0.232834 113.218 0.759102 112.166 1.81166C111.107 2.8705 110.578 4.14363 110.578 5.63105V8.33492H120.296C120.296 9.07862 120.035 9.71519 119.511 10.2446C118.982 10.774 118.346 11.0387 117.602 11.0387H110.577V13.7426H118.348C118.349 13.7266 118.349 13.7105 118.35 13.6945C119.52 13.5437 120.544 13.031 121.421 12.1543C122.474 11.1018 123 9.82865 123 8.33492V5.63105H113.281C113.281 4.88734 113.546 4.25077 114.075 3.72134C114.605 3.19191 115.241 2.92722 115.985 2.92722H123V0.232834H117.032Z" fill="black"/>
<path d="M73.9552 0.233284V10.4814L70.0132 6.97754L71.7393 5.06684L71.7357 5.06321L71.7393 5.05924H71.7317L66.8916 0.233302H63.63V13.7431H66.3338V3.49492L67.8981 5.05922L69.9028 7.06394L68.3686 8.79031L73.3974 13.7431C75.1988 13.7431 76.659 12.2828 76.659 10.4814V0.233284H73.9552Z" fill="black"/>
</svg>
