<?xml version="1.0" encoding="UTF-8"?>
<svg id="logo-animated" xmlns="http://www.w3.org/2000/svg" viewBox="0 0 900 110">
    <g id="Components">
        <g id="_6ca9d76e-6ded-4b0e-a2b9-04e7c437113e_1">
            <!-- Logo part 1 (rouge) -->
            <rect id="logo-part-1" x="32.4252" y="44.9355" width="22.5693" height="12.0746" style="fill:#fc5757; stroke-width:0px;"/>
            
            <!-- Letter R -->
            <path id="letter-r" d="m337.7851,13.2777h-22.9961v74.7871h14.9679v-29.9358h17.2724c6.1756,0,11.4614,2.1981,15.8576,6.5942,4.3613,4.3961,6.542,9.682,6.542,15.8577v7.4839h14.9678v-7.4839c0-6.0013-1.3607-11.6534-4.0822-16.9566-2.6168-5.1639-6.2452-9.4903-10.8856-12.9792,4.6404-3.489,8.2689-7.7981,10.8856-12.9269,2.7215-5.3032,4.0822-10.9729,4.0822-17.0089v-7.4316h-46.6115Zm30.3876,14.9155c-1.5701,4.431-4.2566,8.0248-8.0596,10.7811-3.9078,2.7912-8.269,4.1867-13.0838,4.1867h-17.2724v-14.9678h38.4159Z" style="fill:#004554; stroke-width:0px;"/>
            
            <!-- Letter S (first) -->
            <path id="letter-s-1" d="m620.8548,13.4111h-5.7939c-8.2689,0-15.3166,2.9133-21.1433,8.74-5.8615,5.8615-8.7923,12.9093-8.7923,21.1433v14.968h53.8002c0,4.117-1.4478,7.6409-4.3437,10.5717-2.9308,2.9308-6.4546,4.3961-10.5719,4.3961h-38.8847v14.968h43.0183c.0035-.0887.0043-.1777.0078-.2664,6.4797-.835,12.1489-3.6727,17.0021-8.5259,5.8267-5.8267,8.74-12.8745,8.74-21.1435v-14.968h-53.8004c0-4.117,1.4654-7.6409,4.3961-10.5717s6.4546-4.3961,10.5717-4.3961h38.8326v-14.9155h-33.0387Z" style="fill:#004554; stroke-width:0px;"/>
            
            <!-- Letter Y -->
            <path id="letter-y" d="m695.5383,74.1098v13.925c8.269,0,14.9722-6.6188,14.9722-14.7836l-.0072-12.4662v-9.8959l28.9203-37.6007h-18.8407l-17.2638,22.4257-17.0238-22.1139h-18.893l28.1333,36.5259v10.6589l.0027,13.3247Z" style="fill:#004554; stroke-width:0px;"/>
            
            <!-- Letter T (part 1) -->
            <rect id="letter-t-1" x="140.5333" y="13.8054" width="26.6749" height="14.271" style="fill:#004554; stroke-width:0px;"/>
            
            <!-- Letter T (part 2) -->
            <path id="letter-t-2" d="m167.5154,43.4086v44.2701c8.1647,0,14.7836-6.6188,14.7836-14.7836V28.3037h27.0708v-14.7836h-11.9659c-16.507,0-29.8885,13.3815-29.8885,29.8885Z" style="fill:#004554; stroke-width:0px;"/>
            
            <!-- Letter E (first) -->
            <path id="letter-e-1" d="m260.5774,28.1932h20.7504c8.2376,0,14.9155-6.6778,14.9155-14.9155h-67.9288v74.7871h53.0132c8.2376,0,14.9155-6.678,14.9155-14.9155v-.0525h-52.961v-14.9678h38.0454c8.2376,0,14.9155-6.6778,14.9155-14.9155v-.0525h-52.961v-14.9678h17.295Z" style="fill:#004554; stroke-width:0px;"/>
            
            <!-- Letter E (second) -->
            <path id="letter-e-2" d="m436.8659,28.1932h20.7504c8.2375,0,14.9155-6.6778,14.9155-14.9155h-67.9288v74.7871h53.0132c8.2375,0,14.9155-6.678,14.9155-14.9155v-.0525h-52.961v-14.9678h38.0454c8.2375,0,14.9155-6.6778,14.9155-14.9155v-.0525h-52.961v-14.9678h17.295Z" style="fill:#004554; stroke-width:0px;"/>
            
            <!-- Letter S (second) -->
            <path id="letter-s-2" d="m788.3951,13.2752h-5.7939c-8.2689,0-15.3166,2.9133-21.1433,8.74-5.8615,5.8615-8.7923,12.9093-8.7923,21.1433v14.968h53.8002c0,4.117-1.4478,7.6409-4.3437,10.5717-2.9308,2.9308-6.4546,4.3961-10.5719,4.3961h-38.8847v14.968h43.0183c.0035-.0887.0043-.1777.0078-.2664,6.4797-.835,12.1489-3.6727,17.0021-8.5259,5.8267-5.8267,8.74-12.8745,8.74-21.1435v-14.968h-53.8004c0-4.117,1.4654-7.6409,4.3961-10.5717,2.9308-2.9308,6.4546-4.3961,10.5717-4.3961h38.8326v-14.9155h-33.0387Z" style="fill:#004554; stroke-width:0px;"/>
            
            <!-- Letter N -->
            <path id="letter-n" d="m549.9327,13.2777v56.7314l-21.8223-19.3967,9.5557-10.5772-.0201-.0201.0201-.022h-.0422l-26.7937-26.7153h-18.0556v74.7871h14.9678V31.3334l8.6595,8.6596h-.0001l11.0977,11.0977-8.4927,9.5568,27.8382,27.4174c9.972,0,18.0555-8.0837,18.0555-18.0557V13.2777h-14.9678Z" style="fill:#004554; stroke-width:0px;"/>
            
            <!-- Logo part 2 (bleu) -->
            <path id="logo-part-2" d="m55.9805,68.01v33.4037c6.1607,0,11.1548-4.9942,11.1548-11.1548v-33.6462h20.4261v-11.1548h-9.0288c-12.4552,0-22.5522,10.0969-22.5522,22.5522Z" style="fill:#004554; stroke-width:0px;"/>
            
            <!-- Logo part 3 (bleu) -->
            <path id="logo-part-3" d="m31.581,33.4037V0c-6.1607,0-11.1548,4.9942-11.1548,11.1548v33.6462H0v11.1548h9.0288c12.4552,0,22.5522-10.0969,22.5522-22.5522Z" style="fill:#004554; stroke-width:0px;"/>
        </g>
    </g>
</svg> 