<svg width="148" height="17" viewBox="0 0 148 17" fill="none" xmlns="http://www.w3.org/2000/svg">
<path d="M4.64209 13.4559C3.97009 13.4559 3.37809 13.3493 2.86609 13.1359C2.36476 12.9226 1.93809 12.6239 1.58609 12.2399C1.24476 11.8559 0.98876 11.4026 0.818094 10.8799C0.647427 10.3466 0.562094 9.75994 0.562094 9.11994C0.562094 8.47994 0.65276 7.89327 0.834094 7.35994C1.02609 6.82661 1.29276 6.36794 1.63409 5.98394C1.97543 5.58927 2.39143 5.28527 2.88209 5.07194C3.38343 4.84794 3.93809 4.73594 4.54609 4.73594C4.91943 4.73594 5.29276 4.76794 5.66609 4.83194C6.03943 4.89594 6.39676 4.99727 6.73809 5.13594L6.40209 6.39994C6.17809 6.29327 5.91676 6.20794 5.61809 6.14394C5.33009 6.07994 5.02076 6.04794 4.69009 6.04794C3.85809 6.04794 3.21809 6.30927 2.77009 6.83194C2.33276 7.35461 2.11409 8.11727 2.11409 9.11994C2.11409 9.56794 2.16209 9.97861 2.25809 10.3519C2.36476 10.7253 2.52476 11.0453 2.73809 11.3119C2.96209 11.5786 3.24476 11.7866 3.58609 11.9359C3.92743 12.0746 4.34343 12.1439 4.83409 12.1439C5.22876 12.1439 5.58609 12.1066 5.90609 12.0319C6.22609 11.9573 6.47676 11.8773 6.65809 11.7919L6.86609 13.0399C6.78076 13.0933 6.65809 13.1466 6.49809 13.1999C6.33809 13.2426 6.15676 13.2799 5.95409 13.3119C5.75143 13.3546 5.53276 13.3866 5.29809 13.4079C5.07409 13.4399 4.85543 13.4559 4.64209 13.4559ZM15.6045 9.10394C15.6045 9.76527 15.5085 10.3626 15.3165 10.8959C15.1245 11.4293 14.8525 11.8879 14.5005 12.2719C14.1591 12.6559 13.7485 12.9546 13.2685 13.1679C12.7885 13.3706 12.2658 13.4719 11.7005 13.4719C11.1351 13.4719 10.6125 13.3706 10.1325 13.1679C9.65247 12.9546 9.23647 12.6559 8.88447 12.2719C8.54314 11.8879 8.27647 11.4293 8.08447 10.8959C7.89247 10.3626 7.79647 9.76527 7.79647 9.10394C7.79647 8.45327 7.89247 7.86127 8.08447 7.32794C8.27647 6.78394 8.54314 6.31994 8.88447 5.93594C9.23647 5.55194 9.65247 5.25861 10.1325 5.05594C10.6125 4.8426 11.1351 4.73594 11.7005 4.73594C12.2658 4.73594 12.7885 4.8426 13.2685 5.05594C13.7485 5.25861 14.1591 5.55194 14.5005 5.93594C14.8525 6.31994 15.1245 6.78394 15.3165 7.32794C15.5085 7.86127 15.6045 8.45327 15.6045 9.10394ZM14.0525 9.10394C14.0525 8.16527 13.8391 7.42394 13.4125 6.87994C12.9965 6.32527 12.4258 6.04794 11.7005 6.04794C10.9751 6.04794 10.3991 6.32527 9.97247 6.87994C9.55647 7.42394 9.34847 8.16527 9.34847 9.10394C9.34847 10.0426 9.55647 10.7893 9.97247 11.3439C10.3991 11.8879 10.9751 12.1599 11.7005 12.1599C12.4258 12.1599 12.9965 11.8879 13.4125 11.3439C13.8391 10.7893 14.0525 10.0426 14.0525 9.10394ZM17.698 5.18394C18.0393 5.09861 18.4926 5.00794 19.058 4.91194C19.6233 4.81594 20.274 4.76794 21.01 4.76794C21.6713 4.76794 22.2206 4.86394 22.658 5.05594C23.0953 5.23727 23.442 5.49861 23.698 5.83994C23.9646 6.17061 24.1513 6.57061 24.258 7.03994C24.3646 7.50927 24.418 8.02661 24.418 8.59194V13.2639H22.93V8.91194C22.93 8.39994 22.8926 7.96261 22.818 7.59994C22.754 7.23727 22.642 6.94394 22.482 6.71994C22.322 6.49594 22.1086 6.33594 21.842 6.23994C21.5753 6.13327 21.2446 6.07994 20.85 6.07994C20.69 6.07994 20.5246 6.08527 20.354 6.09594C20.1833 6.10661 20.018 6.12261 19.858 6.14394C19.7086 6.15461 19.57 6.17061 19.442 6.19194C19.3246 6.21327 19.2393 6.22927 19.186 6.23994V13.2639H17.698V5.18394ZM28.2775 4.94394H31.4295V6.19194H28.2775V10.0319C28.2775 10.4479 28.3095 10.7946 28.3735 11.0719C28.4375 11.3386 28.5335 11.5519 28.6615 11.7119C28.7895 11.8613 28.9495 11.9679 29.1415 12.0319C29.3335 12.0959 29.5575 12.1279 29.8135 12.1279C30.2615 12.1279 30.6188 12.0799 30.8855 11.9839C31.1628 11.8773 31.3548 11.8026 31.4615 11.7599L31.7495 12.9919C31.6001 13.0666 31.3388 13.1573 30.9655 13.2639C30.5921 13.3813 30.1655 13.4399 29.6855 13.4399C29.1201 13.4399 28.6508 13.3706 28.2775 13.2319C27.9148 13.0826 27.6215 12.8639 27.3975 12.5759C27.1735 12.2879 27.0135 11.9359 26.9175 11.5199C26.8321 11.0933 26.7895 10.6026 26.7895 10.0479V2.62394L28.2775 2.36794V4.94394ZM36.139 12.1919C36.491 12.1919 36.8003 12.1866 37.067 12.1759C37.3443 12.1546 37.5736 12.1226 37.755 12.0799V9.59994C37.6483 9.54661 37.4723 9.50394 37.227 9.47194C36.9923 9.42927 36.7043 9.40794 36.363 9.40794C36.139 9.40794 35.899 9.42394 35.643 9.45594C35.3976 9.48794 35.1683 9.55727 34.955 9.66394C34.7523 9.75994 34.5816 9.89861 34.443 10.0799C34.3043 10.2506 34.235 10.4799 34.235 10.7679C34.235 11.3013 34.4056 11.6746 34.747 11.8879C35.0883 12.0906 35.5523 12.1919 36.139 12.1919ZM36.011 4.73594C36.6083 4.73594 37.1096 4.81594 37.515 4.97594C37.931 5.12527 38.2616 5.34394 38.507 5.63194C38.763 5.90927 38.9443 6.24527 39.051 6.63994C39.1576 7.02394 39.211 7.45061 39.211 7.91994V13.1199C39.083 13.1413 38.9016 13.1733 38.667 13.2159C38.443 13.2479 38.187 13.2799 37.899 13.3119C37.611 13.3439 37.2963 13.3706 36.955 13.3919C36.6243 13.4239 36.2936 13.4399 35.963 13.4399C35.4936 13.4399 35.0616 13.3919 34.667 13.2959C34.2723 13.1999 33.931 13.0506 33.643 12.8479C33.355 12.6346 33.131 12.3573 32.971 12.0159C32.811 11.6746 32.731 11.2639 32.731 10.7839C32.731 10.3253 32.8216 9.93061 33.003 9.59994C33.195 9.26927 33.451 9.00261 33.771 8.79994C34.091 8.59727 34.4643 8.44794 34.891 8.35194C35.3176 8.25594 35.7656 8.20794 36.235 8.20794C36.3843 8.20794 36.539 8.21861 36.699 8.23994C36.859 8.25061 37.0083 8.27194 37.147 8.30394C37.2963 8.32527 37.4243 8.34661 37.531 8.36794C37.6376 8.38927 37.7123 8.40527 37.755 8.41594V7.99994C37.755 7.75461 37.7283 7.51461 37.675 7.27994C37.6216 7.03461 37.5256 6.82127 37.387 6.63994C37.2483 6.44794 37.0563 6.29861 36.811 6.19194C36.5763 6.07461 36.267 6.01594 35.883 6.01594C35.3923 6.01594 34.9603 6.05327 34.587 6.12794C34.2243 6.19194 33.9523 6.26127 33.771 6.33594L33.595 5.10394C33.787 5.01861 34.107 4.93861 34.555 4.86394C35.003 4.7786 35.4883 4.73594 36.011 4.73594ZM45.2983 13.4559C44.6263 13.4559 44.0343 13.3493 43.5223 13.1359C43.021 12.9226 42.5943 12.6239 42.2423 12.2399C41.901 11.8559 41.645 11.4026 41.4743 10.8799C41.3037 10.3466 41.2183 9.75994 41.2183 9.11994C41.2183 8.47994 41.309 7.89327 41.4903 7.35994C41.6823 6.82661 41.949 6.36794 42.2903 5.98394C42.6317 5.58927 43.0477 5.28527 43.5383 5.07194C44.0397 4.84794 44.5943 4.73594 45.2023 4.73594C45.5757 4.73594 45.949 4.76794 46.3223 4.83194C46.6957 4.89594 47.053 4.99727 47.3943 5.13594L47.0583 6.39994C46.8343 6.29327 46.573 6.20794 46.2743 6.14394C45.9863 6.07994 45.677 6.04794 45.3463 6.04794C44.5143 6.04794 43.8743 6.30927 43.4263 6.83194C42.989 7.35461 42.7703 8.11727 42.7703 9.11994C42.7703 9.56794 42.8183 9.97861 42.9143 10.3519C43.021 10.7253 43.181 11.0453 43.3943 11.3119C43.6183 11.5786 43.901 11.7866 44.2423 11.9359C44.5837 12.0746 44.9997 12.1439 45.4903 12.1439C45.885 12.1439 46.2423 12.1066 46.5623 12.0319C46.8823 11.9573 47.133 11.8773 47.3143 11.7919L47.5223 13.0399C47.437 13.0933 47.3143 13.1466 47.1543 13.1999C46.9943 13.2426 46.813 13.2799 46.6103 13.3119C46.4077 13.3546 46.189 13.3866 45.9543 13.4079C45.7303 13.4399 45.5117 13.4559 45.2983 13.4559ZM50.5118 4.94394H53.6638V6.19194H50.5118V10.0319C50.5118 10.4479 50.5438 10.7946 50.6078 11.0719C50.6718 11.3386 50.7678 11.5519 50.8958 11.7119C51.0238 11.8613 51.1838 11.9679 51.3758 12.0319C51.5678 12.0959 51.7918 12.1279 52.0478 12.1279C52.4958 12.1279 52.8532 12.0799 53.1198 11.9839C53.3972 11.8773 53.5892 11.8026 53.6958 11.7599L53.9838 12.9919C53.8345 13.0666 53.5732 13.1573 53.1998 13.2639C52.8265 13.3813 52.3998 13.4399 51.9198 13.4399C51.3545 13.4399 50.8852 13.3706 50.5118 13.2319C50.1492 13.0826 49.8558 12.8639 49.6318 12.5759C49.4078 12.2879 49.2478 11.9359 49.1518 11.5199C49.0665 11.0933 49.0238 10.6026 49.0238 10.0479V2.62394L50.5118 2.36794V4.94394ZM65.3173 12.5759C64.976 12.5759 64.6933 12.5279 64.4693 12.4319C64.2453 12.3359 64.0587 12.2079 63.9093 12.0479C63.6747 12.1759 63.392 12.2879 63.0613 12.3839C62.7307 12.4693 62.4 12.5119 62.0693 12.5119C61.5573 12.5119 61.088 12.4319 60.6613 12.2719C60.2453 12.1119 59.8827 11.8773 59.5733 11.5679C59.264 11.2479 59.024 10.8586 58.8533 10.3999C58.6827 9.94127 58.5973 9.40794 58.5973 8.79994C58.5973 8.28794 58.6773 7.80794 58.8373 7.35994C58.9973 6.90127 59.232 6.50661 59.5413 6.17594C59.8613 5.83461 60.2453 5.56794 60.6933 5.37594C61.152 5.18394 61.6693 5.08794 62.2453 5.08794C62.7893 5.08794 63.2853 5.13061 63.7333 5.21594C64.192 5.30127 64.544 5.38661 64.7893 5.47194V10.3679C64.7893 10.7093 64.848 10.9493 64.9653 11.0879C65.0827 11.2266 65.2373 11.2959 65.4293 11.2959C65.7067 11.2959 65.9467 11.1999 66.1493 11.0079C66.3627 10.8159 66.5333 10.5653 66.6613 10.2559C66.8 9.94661 66.9013 9.59994 66.9653 9.21594C67.0293 8.82127 67.0613 8.42127 67.0613 8.01594C67.0613 7.34394 66.944 6.71461 66.7093 6.12794C66.4747 5.53061 66.1387 5.00794 65.7013 4.55994C65.264 4.11194 64.7307 3.75994 64.1013 3.50394C63.4827 3.24794 62.784 3.11994 62.0053 3.11994C61.2267 3.11994 60.512 3.25327 59.8613 3.51994C59.2107 3.77594 58.6507 4.14927 58.1813 4.63994C57.712 5.11994 57.344 5.71194 57.0773 6.41594C56.8213 7.11994 56.6933 7.91994 56.6933 8.81594C56.6933 9.75461 56.832 10.5813 57.1093 11.2959C57.3867 11.9999 57.7707 12.5919 58.2613 13.0719C58.7627 13.5413 59.3493 13.8933 60.0213 14.1279C60.704 14.3733 61.4507 14.4959 62.2613 14.4959C62.8907 14.4959 63.408 14.4586 63.8133 14.3839C64.2293 14.3093 64.496 14.2506 64.6133 14.2079L64.7733 15.3919C64.592 15.4559 64.2613 15.5253 63.7813 15.5999C63.312 15.6746 62.8053 15.7119 62.2613 15.7119C61.312 15.7119 60.416 15.5733 59.5733 15.2959C58.7307 15.0293 57.9947 14.6133 57.3653 14.0479C56.736 13.4933 56.2347 12.7839 55.8613 11.9199C55.4987 11.0453 55.3173 10.0106 55.3173 8.81594C55.3173 7.66394 55.4987 6.65594 55.8613 5.79194C56.224 4.92794 56.7093 4.21327 57.3173 3.64794C57.936 3.07194 58.6453 2.63994 59.4453 2.35194C60.256 2.06394 61.1093 1.91994 62.0053 1.91994C62.88 1.91994 63.7067 2.06394 64.4853 2.35194C65.264 2.62927 65.9467 3.03994 66.5333 3.58394C67.12 4.11727 67.584 4.76794 67.9253 5.53594C68.2667 6.29327 68.4373 7.15194 68.4373 8.11194C68.4373 8.83727 68.352 9.47727 68.1813 10.0319C68.0213 10.5866 67.8027 11.0559 67.5253 11.4399C67.248 11.8133 66.9173 12.0959 66.5333 12.2879C66.1493 12.4799 65.744 12.5759 65.3173 12.5759ZM62.1173 11.2799C62.3413 11.2799 62.5653 11.2586 62.7893 11.2159C63.024 11.1626 63.232 11.0879 63.4133 10.9919C63.3813 10.8533 63.36 10.7146 63.3493 10.5759C63.3387 10.4373 63.3333 10.3039 63.3333 10.1759V6.41594C63.2693 6.39461 63.1467 6.37327 62.9653 6.35194C62.784 6.33061 62.5813 6.31994 62.3573 6.31994C61.6 6.31994 61.0347 6.55461 60.6613 7.02394C60.288 7.49327 60.1013 8.08527 60.1013 8.79994C60.1013 9.55727 60.2827 10.1599 60.6453 10.6079C61.008 11.0559 61.4987 11.2799 62.1173 11.2799ZM72.1525 4.94394H75.3045V6.19194H72.1525V10.0319C72.1525 10.4479 72.1845 10.7946 72.2485 11.0719C72.3125 11.3386 72.4085 11.5519 72.5365 11.7119C72.6645 11.8613 72.8245 11.9679 73.0165 12.0319C73.2085 12.0959 73.4325 12.1279 73.6885 12.1279C74.1365 12.1279 74.4938 12.0799 74.7605 11.9839C75.0378 11.8773 75.2298 11.8026 75.3365 11.7599L75.6245 12.9919C75.4751 13.0666 75.2138 13.1573 74.8405 13.2639C74.4671 13.3813 74.0405 13.4399 73.5605 13.4399C72.9951 13.4399 72.5258 13.3706 72.1525 13.2319C71.7898 13.0826 71.4965 12.8639 71.2725 12.5759C71.0485 12.2879 70.8885 11.9359 70.7925 11.5199C70.7071 11.0933 70.6645 10.6026 70.6645 10.0479V2.62394L72.1525 2.36794V4.94394ZM76.5777 9.11994C76.5777 8.38394 76.6844 7.74394 76.8977 7.19994C77.1111 6.64527 77.3937 6.18661 77.7457 5.82394C78.0977 5.46127 78.5031 5.18927 78.9617 5.00794C79.4204 4.8266 79.8897 4.73594 80.3697 4.73594C81.4897 4.73594 82.3484 5.08794 82.9457 5.79194C83.5431 6.48527 83.8417 7.54661 83.8417 8.97594C83.8417 9.03994 83.8417 9.12527 83.8417 9.23194C83.8417 9.32794 83.8364 9.41861 83.8257 9.50394H78.1297C78.1937 10.3679 78.4444 11.0239 78.8817 11.4719C79.3191 11.9199 80.0017 12.1439 80.9297 12.1439C81.4524 12.1439 81.8897 12.1013 82.2417 12.0159C82.6044 11.9199 82.8764 11.8293 83.0577 11.7439L83.2657 12.9919C83.0844 13.0879 82.7644 13.1893 82.3057 13.2959C81.8577 13.4026 81.3457 13.4559 80.7697 13.4559C80.0444 13.4559 79.4151 13.3493 78.8817 13.1359C78.3591 12.9119 77.9271 12.6079 77.5857 12.2239C77.2444 11.8399 76.9884 11.3866 76.8177 10.8639C76.6577 10.3306 76.5777 9.74927 76.5777 9.11994ZM82.2897 8.30394C82.3004 7.63194 82.1297 7.08261 81.7777 6.65594C81.4364 6.21861 80.9617 5.99994 80.3537 5.99994C80.0124 5.99994 79.7084 6.06927 79.4417 6.20794C79.1857 6.33594 78.9671 6.50661 78.7857 6.71994C78.6044 6.93327 78.4604 7.17861 78.3537 7.45594C78.2577 7.73327 78.1937 8.01594 78.1617 8.30394H82.2897ZM89.0512 4.76794C89.1792 4.76794 89.3232 4.77861 89.4832 4.79994C89.6539 4.81061 89.8192 4.83194 89.9792 4.86394C90.1392 4.88527 90.2832 4.91194 90.4112 4.94394C90.5499 4.96527 90.6512 4.98661 90.7152 5.00794L90.4592 6.30394C90.3419 6.26127 90.1446 6.21327 89.8672 6.15994C89.6006 6.09594 89.2539 6.06394 88.8272 6.06394C88.5499 6.06394 88.2726 6.09594 87.9952 6.15994C87.7286 6.21327 87.5526 6.25061 87.4672 6.27194V13.2639H85.9792V5.29594C86.3312 5.16794 86.7686 5.0506 87.2912 4.94394C87.8139 4.82661 88.4006 4.76794 89.0512 4.76794ZM91.6871 9.11994C91.6871 8.38394 91.7938 7.74394 92.0071 7.19994C92.2204 6.64527 92.5031 6.18661 92.8551 5.82394C93.2071 5.46127 93.6124 5.18927 94.0711 5.00794C94.5298 4.8266 94.9991 4.73594 95.4791 4.73594C96.5991 4.73594 97.4578 5.08794 98.0551 5.79194C98.6524 6.48527 98.9511 7.54661 98.9511 8.97594C98.9511 9.03994 98.9511 9.12527 98.9511 9.23194C98.9511 9.32794 98.9458 9.41861 98.9351 9.50394H93.2391C93.3031 10.3679 93.5538 11.0239 93.9911 11.4719C94.4284 11.9199 95.1111 12.1439 96.0391 12.1439C96.5618 12.1439 96.9991 12.1013 97.3511 12.0159C97.7138 11.9199 97.9858 11.8293 98.1671 11.7439L98.3751 12.9919C98.1938 13.0879 97.8738 13.1893 97.4151 13.2959C96.9671 13.4026 96.4551 13.4559 95.8791 13.4559C95.1538 13.4559 94.5244 13.3493 93.9911 13.1359C93.4684 12.9119 93.0364 12.6079 92.6951 12.2239C92.3538 11.8399 92.0978 11.3866 91.9271 10.8639C91.7671 10.3306 91.6871 9.74927 91.6871 9.11994ZM97.3991 8.30394C97.4098 7.63194 97.2391 7.08261 96.8871 6.65594C96.5458 6.21861 96.0711 5.99994 95.4631 5.99994C95.1218 5.99994 94.8178 6.06927 94.5511 6.20794C94.2951 6.33594 94.0764 6.50661 93.8951 6.71994C93.7138 6.93327 93.5698 7.17861 93.4631 7.45594C93.3671 7.73327 93.3031 8.01594 93.2711 8.30394H97.3991ZM101.089 5.18394C101.43 5.09861 101.883 5.00794 102.449 4.91194C103.014 4.81594 103.665 4.76794 104.401 4.76794C105.062 4.76794 105.611 4.86394 106.049 5.05594C106.486 5.23727 106.833 5.49861 107.089 5.83994C107.355 6.17061 107.542 6.57061 107.649 7.03994C107.755 7.50927 107.809 8.02661 107.809 8.59194V13.2639H106.321V8.91194C106.321 8.39994 106.283 7.96261 106.209 7.59994C106.145 7.23727 106.033 6.94394 105.873 6.71994C105.713 6.49594 105.499 6.33594 105.233 6.23994C104.966 6.13327 104.635 6.07994 104.241 6.07994C104.081 6.07994 103.915 6.08527 103.745 6.09594C103.574 6.10661 103.409 6.12261 103.249 6.14394C103.099 6.15461 102.961 6.17061 102.833 6.19194C102.715 6.21327 102.63 6.22927 102.577 6.23994V13.2639H101.089V5.18394ZM112.212 12.1919C112.82 12.1919 113.268 12.1119 113.556 11.9519C113.855 11.7919 114.004 11.5359 114.004 11.1839C114.004 10.8213 113.86 10.5333 113.572 10.3199C113.284 10.1066 112.809 9.86661 112.148 9.59994C111.828 9.47194 111.519 9.34394 111.22 9.21594C110.932 9.07727 110.681 8.91727 110.468 8.73594C110.255 8.55461 110.084 8.33594 109.956 8.07994C109.828 7.82394 109.764 7.50927 109.764 7.13594C109.764 6.39994 110.036 5.81861 110.58 5.39194C111.124 4.9546 111.865 4.73594 112.804 4.73594C113.039 4.73594 113.273 4.75194 113.508 4.78394C113.743 4.80527 113.961 4.83727 114.164 4.87994C114.367 4.91194 114.543 4.94927 114.692 4.99194C114.852 5.03461 114.975 5.07194 115.06 5.10394L114.788 6.38394C114.628 6.29861 114.377 6.21327 114.036 6.12794C113.695 6.03194 113.284 5.98394 112.804 5.98394C112.388 5.98394 112.025 6.06927 111.716 6.23994C111.407 6.39994 111.252 6.65594 111.252 7.00794C111.252 7.18927 111.284 7.34927 111.348 7.48794C111.423 7.62661 111.529 7.75461 111.668 7.87194C111.817 7.97861 111.999 8.07994 112.212 8.17594C112.425 8.27194 112.681 8.37327 112.98 8.47994C113.375 8.62927 113.727 8.77861 114.036 8.92794C114.345 9.06661 114.607 9.23194 114.82 9.42394C115.044 9.61594 115.215 9.85061 115.332 10.1279C115.449 10.3946 115.508 10.7253 115.508 11.1199C115.508 11.8879 115.22 12.4693 114.644 12.8639C114.079 13.2586 113.268 13.4559 112.212 13.4559C111.476 13.4559 110.9 13.3919 110.484 13.2639C110.068 13.1466 109.785 13.0559 109.636 12.9919L109.908 11.7119C110.079 11.7759 110.351 11.8719 110.724 11.9999C111.097 12.1279 111.593 12.1919 112.212 12.1919ZM116.441 14.8159C116.558 14.8693 116.707 14.9173 116.889 14.9599C117.081 15.0133 117.267 15.0399 117.449 15.0399C118.035 15.0399 118.494 14.9066 118.825 14.6399C119.155 14.3839 119.454 13.9626 119.721 13.3759C119.049 12.0959 118.419 10.7413 117.833 9.31194C117.257 7.87194 116.777 6.41594 116.393 4.94394H117.993C118.11 5.42394 118.249 5.94127 118.409 6.49594C118.579 7.05061 118.766 7.62127 118.969 8.20794C119.171 8.79461 119.39 9.38127 119.625 9.96794C119.859 10.5546 120.105 11.1199 120.361 11.6639C120.766 10.5439 121.118 9.43461 121.417 8.33594C121.715 7.23727 121.998 6.10661 122.265 4.94394H123.801C123.417 6.51194 122.99 8.02127 122.521 9.47194C122.051 10.9119 121.545 12.2613 121.001 13.5199C120.787 13.9999 120.563 14.4106 120.329 14.7519C120.105 15.1039 119.854 15.3919 119.577 15.6159C119.299 15.8399 118.985 16.0053 118.633 16.1119C118.291 16.2186 117.902 16.2719 117.465 16.2719C117.347 16.2719 117.225 16.2613 117.097 16.2399C116.969 16.2293 116.841 16.2079 116.713 16.1759C116.595 16.1546 116.483 16.1279 116.377 16.0959C116.281 16.0639 116.211 16.0373 116.169 16.0159L116.441 14.8159ZM127.306 12.1919C127.914 12.1919 128.362 12.1119 128.65 11.9519C128.949 11.7919 129.098 11.5359 129.098 11.1839C129.098 10.8213 128.954 10.5333 128.666 10.3199C128.378 10.1066 127.903 9.86661 127.242 9.59994C126.922 9.47194 126.613 9.34394 126.314 9.21594C126.026 9.07727 125.775 8.91727 125.562 8.73594C125.349 8.55461 125.178 8.33594 125.05 8.07994C124.922 7.82394 124.858 7.50927 124.858 7.13594C124.858 6.39994 125.13 5.81861 125.674 5.39194C126.218 4.9546 126.959 4.73594 127.898 4.73594C128.133 4.73594 128.367 4.75194 128.602 4.78394C128.837 4.80527 129.055 4.83727 129.258 4.87994C129.461 4.91194 129.637 4.94927 129.786 4.99194C129.946 5.03461 130.069 5.07194 130.154 5.10394L129.882 6.38394C129.722 6.29861 129.471 6.21327 129.13 6.12794C128.789 6.03194 128.378 5.98394 127.898 5.98394C127.482 5.98394 127.119 6.06927 126.81 6.23994C126.501 6.39994 126.346 6.65594 126.346 7.00794C126.346 7.18927 126.378 7.34927 126.442 7.48794C126.517 7.62661 126.623 7.75461 126.762 7.87194C126.911 7.97861 127.093 8.07994 127.306 8.17594C127.519 8.27194 127.775 8.37327 128.074 8.47994C128.469 8.62927 128.821 8.77861 129.13 8.92794C129.439 9.06661 129.701 9.23194 129.914 9.42394C130.138 9.61594 130.309 9.85061 130.426 10.1279C130.543 10.3946 130.602 10.7253 130.602 11.1199C130.602 11.8879 130.314 12.4693 129.738 12.8639C129.173 13.2586 128.362 13.4559 127.306 13.4559C126.57 13.4559 125.994 13.3919 125.578 13.2639C125.162 13.1466 124.879 13.0559 124.73 12.9919L125.002 11.7119C125.173 11.7759 125.445 11.8719 125.818 11.9999C126.191 12.1279 126.687 12.1919 127.306 12.1919ZM134.27 12.3999C134.27 12.6879 134.174 12.9386 133.982 13.1519C133.79 13.3653 133.529 13.4719 133.198 13.4719C132.868 13.4719 132.606 13.3653 132.414 13.1519C132.222 12.9386 132.126 12.6879 132.126 12.3999C132.126 12.1119 132.222 11.8613 132.414 11.6479C132.606 11.4346 132.868 11.3279 133.198 11.3279C133.529 11.3279 133.79 11.4346 133.982 11.6479C134.174 11.8613 134.27 12.1119 134.27 12.3999ZM139.696 0.847939C140.133 0.847939 140.507 0.879938 140.816 0.943938C141.136 1.00794 141.36 1.0666 141.488 1.11994L141.216 2.39994C141.088 2.33594 140.907 2.27727 140.672 2.22394C140.437 2.15994 140.149 2.12794 139.808 2.12794C139.115 2.12794 138.629 2.31994 138.352 2.70394C138.075 3.07727 137.936 3.58394 137.936 4.22394V4.94394H141.136V6.19194H137.936V13.2639H136.448V4.19194C136.448 3.12527 136.709 2.30394 137.232 1.72794C137.755 1.14127 138.576 0.847939 139.696 0.847939ZM145.692 4.76794C145.82 4.76794 145.964 4.77861 146.124 4.79994C146.295 4.81061 146.46 4.83194 146.62 4.86394C146.78 4.88527 146.924 4.91194 147.052 4.94394C147.191 4.96527 147.292 4.98661 147.356 5.00794L147.1 6.30394C146.983 6.26127 146.785 6.21327 146.508 6.15994C146.241 6.09594 145.895 6.06394 145.468 6.06394C145.191 6.06394 144.913 6.09594 144.636 6.15994C144.369 6.21327 144.193 6.25061 144.108 6.27194V13.2639H142.62V5.29594C142.972 5.16794 143.409 5.0506 143.932 4.94394C144.455 4.82661 145.041 4.76794 145.692 4.76794Z" fill="#E0DED9"/>
</svg>
