<svg xmlns="http://www.w3.org/2000/svg" viewBox="0 0 64 64" width="64" height="64">
  <g transform="matrix(4 0 0 4 256 0)">
    <circle cx="-52" cy="4" r="4" fill="#4caf50"/>
    <path d="M-49.2 3.3c-.1-.1-.2-.1-.3-.1h-1.8V1.4c0-.1 0-.2-.1-.3 0-.1-.1-.1-.2-.1h-.8c-.1 0-.2 0-.3.1-.1.1-.1.2-.1.3v1.8h-1.8c-.1 0-.2 0-.3.1-.1.1-.1.2-.1.3v.8c0 .1 0 .2.1.3.1.1.2.1.3.1h1.8v1.8c0 .1 0 .2.1.3.1.1.2.1.3.1h.8c.1 0 .2 0 .3-.1.1-.1.1-.2.1-.3V4.8h1.8c.1 0 .2 0 .3-.1.1-.1.1-.2.1-.3v-.8c0-.1-.1-.2-.2-.3z" fill="#fff"/>
  </g>
</svg>
